<?xml version="1.0" encoding="utf-8"?>
<!-- Generator: Adobe Illustrator 23.0.3, SVG Export Plug-In . SVG Version: 6.00 Build 0)  -->
<svg version="1.1" id="Layer_1" xmlns="http://www.w3.org/2000/svg" xmlns:xlink="http://www.w3.org/1999/xlink" x="0px" y="0px"
	 viewBox="0 0 355.8 142.14" style="enable-background:new 0 0 355.8 142.14;" xml:space="preserve">
<style type="text/css">
	.st0{fill:#E43D30;}
</style>
<g>
	<path class="st0" d="M129.38,100.14c0,9.99-0.02,19.99,0.01,29.98c0.01,2.89-0.5,5.55-2.41,7.87c-3.5,4.25-7.91,4.72-12.08,3.38
		c-4.33-1.39-7.01-5.44-7.04-10.37c-0.07-9.33-0.02-18.66-0.03-27.98c0-1.5-0.01-3-0.15-4.49c-0.05-0.59-0.34-1.44-0.76-1.62
		c-0.42-0.18-1.36,0.17-1.67,0.58c-2.2,2.91-4.38,5.84-6.36,8.9c-0.38,0.6-0.15,1.96,0.3,2.66c1.52,2.37,3.26,4.59,4.9,6.89
		c0.57,0.8,1.18,1.6,1.61,2.48c1.41,2.86,0.53,4.42-2.71,4.57c-3.16,0.15-6.33,0.03-9.49,0.03c-1,0-2,0.01-3,0
		c-2.17-0.03-3.71,0.86-4.93,2.74c-2.43,3.76-4.97,7.44-7.62,11.04c-2.23,3.04-4.93,5.19-9.11,5.19c-4.1,0-7.13-1.63-9.15-4.96
		c-2.21-3.63-2.4-7.53,0.04-11.16c2.4-3.58,5.08-6.97,7.61-10.46c0.78-1.07,1.54-2.16,2.25-3.28c1.22-1.92,0.14-5.16-2.08-6
		c-0.37-0.14-1.2,0.31-1.51,0.72c-2.17,2.93-4.28,5.91-6.38,8.9c-4.68,6.64-9.37,13.28-13.99,19.95c-3.94,5.69-6.17,8.19-15.21,5.08
		c-16.96-5.82-27.07-17.6-29.93-35.55c-3.43-21.52,11.35-42.9,33.17-47.96c12.27-2.85,23.89-0.53,34.58,6.54
		c6.21,4.1,5.99,14.61-0.74,17.81c-4.01,1.91-7.61,1.63-11.25-0.71c-3.82-2.47-7.97-3.97-12.57-4c-9.99-0.06-20.18,7.13-22.33,18.25
		c-2.46,12.77,6.5,25.44,19.41,26.78c0.82,0.09,1.66,0.01,2.49,0.09c1.88,0.17,2.65-0.5,2.61-2.53c-0.12-5.83,0.31-11.69-0.14-17.48
		c-0.41-5.26,3.46-9.45,9.11-9.13c8.3,0.46,16.65,0.05,24.98,0.16c2.38,0.03,3.77-0.75,5.28-2.7c7.55-9.69,15.29-19.23,23.11-28.69
		c3.63-4.39,8.29-5.46,13.33-3.58c4.71,1.76,7.81,6.27,7.83,11.58C129.4,79.82,129.38,89.98,129.38,100.14z"/>
	<path class="st0" d="M228.61,99.31c0,10.49-0.08,20.99,0.04,31.48c0.05,4.74-2.26,7.94-6.12,10.04c-3.68,2-7.37,1.29-10.83-0.93
		c-3.1-1.99-4.25-4.87-4.22-8.46c0.07-8.49,0.06-16.99,0.01-25.49c-0.02-2.51-0.31-5.02-0.47-7.54c-1.65,1.84-3.35,3.64-4.94,5.53
		c-3.31,3.94-6.58,7.92-9.83,11.91c-2.89,3.55-2.87,3.58,0.19,7.26c2.23,2.68,4.51,5.33,6.73,8.02c0.95,1.15,1.94,2.29,2.72,3.56
		c1.97,3.23,0.55,6.2-3.14,6.24c-10.83,0.12-21.65,0.01-32.48,0.09c-2.16,0.02-3.52-0.94-4.31-2.73c-0.77-1.75,0.18-3.14,1.31-4.48
		c3.43-4.06,6.76-8.21,10.2-12.26c0.95-1.12,1.58-1.95,0.38-3.4c-5.09-6.13-10.06-12.36-15.1-18.53c-0.19-0.23-0.57-0.31-0.86-0.46
		c-0.12,0.29-0.34,0.57-0.35,0.86c-0.04,1.33-0.03,2.66-0.03,4c0,8.66-0.03,17.32,0.03,25.99c0.02,2.74-0.52,5.28-2.16,7.48
		c-2.83,3.79-7.68,5.39-11.98,4.04c-3.9-1.22-7.15-5.38-7.55-9.67c-0.03-0.33,0-0.67,0-1c0-20.66-0.01-41.31,0-61.97
		c0-4.68,1.88-8.33,6.15-10.54c4.45-2.3,9.84-1.12,13.38,3.12c4.79,5.73,9.44,11.59,14.15,17.38c3.67,4.51,7.4,8.96,10.99,13.53
		c1.3,1.66,2.05,1.45,3.28-0.08c3.85-4.79,7.84-9.47,11.79-14.17c4.91-5.85,9.75-11.76,14.78-17.5c2.7-3.08,6.1-4.25,10.27-2.89
		c5.37,1.75,7.94,4.88,7.97,10.56C228.65,78.65,228.61,88.98,228.61,99.31z"/>
	<path class="st0" d="M301.49,141.68c-4.83,0-9.65,0-14.48,0c-0.83,0-1.67,0.06-2.5-0.01c-3.75-0.3-4.41-1.5-2.32-4.61
		c2.49-3.71,5.15-7.31,7.75-10.95c2.17-3.04,4.89-4.66,8.88-4.38c4.64,0.32,9.32,0.15,13.98,0.04c1.96-0.05,3.96-0.3,5.86-0.77
		c4.1-1,5.37-5.42,2.38-8.37c-1.15-1.14-2.62-2.06-4.1-2.74c-3.9-1.78-7.89-3.37-11.85-5.03c-4.44-1.87-8.71-3.99-12.36-7.25
		c-12.36-11.02-9.06-28.56,2.93-36.74c4.64-3.17,9.8-4.73,15.35-4.94c5.48-0.21,10.93-0.21,16.15,2
		c6.29,2.67,11.49,6.53,14.75,12.69c2.72,5.14,1.72,9.98-2.36,13.35c-3.58,2.95-10.01,2.82-13.55-1.08
		c-1.56-1.71-2.98-3.55-4.47-5.32c-2.71-3.23-7.03-4.31-10.74-2.67c-4.18,1.85-5.47,6.52-2.14,9.65c2.46,2.3,5.7,3.86,8.76,5.41
		c5.73,2.91,11.83,5.07,17.09,8.91c3.42,2.5,6.51,5.38,7.83,9.41c4.06,12.49,0.59,26.83-14.67,31.57c-4.26,1.32-8.67,2.01-13.2,1.87
		C310.15,141.57,305.81,141.68,301.49,141.68z"/>
	<path class="st0" d="M235.5,99.38c0-11.32-0.02-22.65,0.01-33.97c0.01-5.94,2.14-8.19,7.98-8.25c10.65-0.11,21.31-0.19,31.96-0.13
		c5.86,0.03,10.08,4.08,10.16,9.37c0.08,5.33-3.83,9.49-9.27,9.59c-5.66,0.11-11.33,0.12-16.98-0.03c-2.26-0.06-2.88,0.8-2.78,2.89
		c0.13,2.82,0.14,5.67,0,8.49c-0.1,2.05,0.76,2.56,2.64,2.49c3.33-0.12,6.66-0.08,9.99-0.03c5.12,0.09,9.05,3.66,9.31,8.38
		c0.27,4.94-3.47,9.16-8.82,9.55c-3.48,0.26-6.99,0.14-10.49,0.04c-1.86-0.06-2.79,0.39-2.63,2.47c0.29,3.75,0.42,7.52,0.61,11.28
		c3.47,0.09,6.94,0.22,10.41,0.26c4.33,0.05,8.66,0.01,12.99,0.01c1,0,2.02-0.09,2.99,0.06c1.52,0.24,2.19,1.61,1.32,2.89
		c-3.07,4.53-6.1,9.09-9.43,13.43c-1.88,2.45-4.7,3.62-7.86,3.62c-8.33,0.01-16.65,0.08-24.98-0.01c-4.98-0.06-7.11-2.34-7.12-7.44
		C235.48,122.7,235.5,111.04,235.5,99.38z"/>
	<path class="st0" d="M226.34,0.79c6.33,0,12.67,0.13,19-0.04c5.05-0.14,7.94,1.91,8.01,7.79c0.14,11.83,0.01,23.67,0.05,35.5
		c0.02,4.69-3.51,7.26-7.24,6.98c-3.45-0.26-5.53-2.14-5.62-5.68c-0.14-5.16-0.04-10.33-0.04-15.5c0-4.5-0.09-9,0.05-13.5
		c0.06-2.04-0.74-2.65-2.62-2.54c-2.64,0.16-5.28,0.21-7.92,0.3c-0.21,2.59-0.56,5.17-0.6,7.76c-0.09,6.67,0.01,13.33-0.06,20
		c-0.02,1.63-0.35,3.26-0.67,4.87c-0.58,2.93-2.81,3.95-5.43,4.24c-3.06,0.33-5.43-0.87-6.43-3.58c-0.67-1.81-0.92-3.86-0.95-5.81
		c-0.1-8.33-0.1-16.67,0-25c0.03-2.21-0.74-2.86-2.88-2.8c-4.5,0.13-9,0.04-13.5,0.03c-1,0-2.03,0.12-2.99-0.07
		c-1.71-0.34-2.47-2-1.42-3.41c1.98-2.67,4.14-5.19,6.27-7.75c1.44-1.73,3.45-1.8,5.48-1.8C213.34,0.8,219.84,0.79,226.34,0.79z"/>
	<path class="st0" d="M297.39,26.15c0,5.99,0.11,11.98-0.03,17.97c-0.12,4.86-2.97,7.19-7.72,6.88c-2.05-0.13-3.3-1.07-4.36-2.78
		c-3.84-6.18-7.77-12.31-11.7-18.43c-0.79-1.23-1.74-2.36-2.62-3.54c-0.18,1.39-0.51,2.78-0.53,4.17c-0.07,4.66,0.1,9.32-0.07,13.98
		c-0.17,4.68-3.49,7.35-7.99,6.51c-2.36-0.44-4.41-1.52-4.85-4.28c-0.23-1.46-0.66-2.92-0.67-4.38
		c-0.05-10.98-0.06-21.97-0.01-32.95c0.02-4.98,1.35-7.13,4.8-8.32c3.33-1.15,5.92,0.01,8.14,3.6c3.57,5.77,7.15,11.53,10.73,17.29
		c0.52,0.84,1.05,1.69,1.63,2.49c0.37,0.51,0.85,0.94,1.28,1.41c0.14-0.64,0.39-1.27,0.39-1.91c0.04-4.66-0.02-9.32,0.05-13.98
		c0.02-1.47,0.19-2.97,0.58-4.38c0.92-3.34,2.73-4.65,6.06-4.68c3.4-0.03,5.26,1.23,6.2,4.48c0.41,1.4,0.63,2.9,0.65,4.36
		c0.07,5.49,0.03,10.98,0.03,16.47C297.38,26.15,297.39,26.15,297.39,26.15z"/>
	<path class="st0" d="M47.7,26.01c0-6.16-0.03-12.33,0.01-18.49c0.03-4.96,1.61-6.54,6.51-6.6c4.33-0.05,8.67,0.09,13-0.03
		c12.55-0.35,22.81,7.57,24.17,22.48c0.71,7.83-1.08,15.22-6.87,21.06c-4.13,4.17-9.11,6.52-15.09,6.5
		c-5.16-0.02-10.33,0.04-15.49-0.02c-4.56-0.05-6.17-1.71-6.2-6.4C47.66,38.34,47.7,32.17,47.7,26.01z M60.7,25.91
		c0,4,0.01,8-0.01,12c0,1.16,0.36,1.88,1.67,1.91c7.53,0.19,14.36-1.06,15.8-10.68c1.48-9.88-2.8-17.73-14.86-17.02
		c-1.85,0.11-2.67,0.91-2.63,2.8C60.76,18.58,60.7,22.24,60.7,25.91z"/>
	<path class="st0" d="M94.84,25.68c0-5.82-0.04-11.65,0.01-17.47c0.05-5.55,1.87-7.29,7.51-7.31c4.49-0.01,8.99-0.01,13.48,0
		c13.42,0.02,22.54,11.12,22.79,22.79c0.13,5.9-0.44,11.55-3.74,16.66c-4.36,6.75-10.39,10.51-18.54,10.56
		c-4.99,0.03-9.98,0.03-14.98-0.01c-4.39-0.04-6.41-1.87-6.5-6.25C94.74,38.33,94.84,32.01,94.84,25.68z M107.82,26.29
		c0,3.65,0,7.29,0,10.94c0,0.17,0.01,0.33,0,0.5c-0.13,1.44,0.45,2.16,1.96,2.09c1.65-0.08,3.36,0.16,4.96-0.16
		c6.04-1.2,8.56-2.49,10.39-8.94c3.15-11.08-3.69-19.7-14.68-18.65c-1.84,0.18-2.68,0.91-2.65,2.78
		C107.85,18.67,107.82,22.48,107.82,26.29z"/>
	<path class="st0" d="M42.5,25.99c0,6.16,0.1,12.33-0.03,18.49c-0.09,4.23-2.55,6.52-6.52,6.47c-3.84-0.05-6.15-2.45-6.23-6.77
		c-0.1-5.33,0-10.66-0.04-15.98c-0.01-1.31-0.22-2.63-0.34-3.94c-0.99,1-2.14,1.88-2.96,3.01c-2.33,3.22-2.22,3.22,0.11,6.76
		c0.96,1.45,2.99,2.74,1.97,4.77c-1.03,2.06-3.26,1.04-4.94,1.09c-7.19,0.22-5.07-0.89-9.2,4.79c-0.97,1.34-1.98,2.66-2.93,4.01
		c-2.14,3.03-6.4,2.87-8.94,1.07c-2.63-1.87-3.14-5.59-1.07-8.82c1.52-2.37,3.11-4.73,4.95-6.85c1.28-1.47,1.02-2.54,0.04-3.84
		c-1.09-1.46-2.27-2.88-3.22-4.43c-1.44-2.35-0.68-3.76,1.96-3.92c0.17-0.01,0.33,0,0.5,0c3.14-0.1,6.76,0.72,9.29-0.57
		c2.53-1.29,3.94-4.74,5.91-7.18c2.92-3.61,5.8-7.26,8.9-10.72c2.43-2.71,5.69-3.46,8.5-2.09c2.91,1.42,4.39,3.76,4.31,7.18
		C42.4,14.33,42.5,20.16,42.5,25.99z"/>
	<path class="st0" d="M338.91,21.9c2.5,0,5-0.08,7.49,0.02c2.14,0.09,3.05,1.49,1.97,3.3c-1.51,2.56-3.2,5.05-5.13,7.3
		c-0.72,0.84-2.33,1.4-3.48,1.3c-2.4-0.2-3.55,0.94-4.74,2.77c-2.62,4.02-5.6,7.81-8.21,11.85c-1.25,1.94-2.78,2.66-4.96,2.58
		c-6.44-0.24-11.39-3.59-15.34-8.16c-6.75-7.83-7.94-17.03-4.4-26.53c3.56-9.57,11.24-14.55,21.01-16.07
		c6.25-0.97,12.15,0.88,17.46,4.34c4.28,2.79,4.07,8.31-0.12,10.67c-2.4,1.35-4.99,1.03-7.5-0.57c-4.83-3.09-9.78-2.6-14.51,0.29
		c-4.39,2.68-6.81,9.06-5.47,13.88c1.69,6.05,6.28,9.95,11.95,10.26c1.81,0.1,2.78-0.27,2.68-2.39c-0.15-3.32-0.1-6.66-0.02-9.98
		c0.08-3.53,1.29-4.72,4.81-4.84C334.58,21.84,336.75,21.9,338.91,21.9z"/>
	<path class="st0" d="M186.65,0.82c2.33,0,4.67-0.09,6.99,0.03c1.85,0.09,2.67,1.22,1.73,2.57c-3.08,4.44-5.76,9.14-12.3,9.67
		c-5.74,0.47-10.22,3.37-11.94,9.52c-2.07,7.43,3.23,15.54,10.91,16.44c6.39,0.74,11.93-1.97,14.64-8.58
		c1.6-3.91,3.21-4.84,6.72-4.66c4.05,0.2,6.53,3.54,5.39,7.51c-2.41,8.41-7.91,13.9-16.08,16.93c-13.71,5.08-29.42-2.89-33.27-16.66
		c-5.32-19.01,8.94-33.05,23.21-32.79C183.99,0.83,185.32,0.81,186.65,0.82C186.65,0.82,186.65,0.82,186.65,0.82z"/>
	<path class="st0" d="M141.83,25.77c0-6.16-0.09-12.31,0.03-18.47c0.08-3.78,2.64-6.49,5.99-6.78c2.93-0.25,5.97,1.94,6.91,5.24
		c0.4,1.39,0.44,2.92,0.45,4.39c0.04,9.98,0.05,19.97,0,29.95c-0.01,1.97-0.07,4.02-0.62,5.88c-0.42,1.46-1.39,2.96-2.53,3.96
		c-3.54,3.09-9.17,0.77-10.18-4.22c-0.19-0.96-0.06-1.99-0.06-2.99C141.82,37.08,141.82,31.42,141.83,25.77
		C141.82,25.77,141.83,25.77,141.83,25.77z"/>
</g>
<g>
	<path class="st0" d="M348.06,0.79V0h3.16v0.79h-1.16v3.49h-0.85V0.79H348.06z"/>
	<path class="st0" d="M352.84,0l0.9,2.95h0.01L354.61,0h1.19v4.28h-0.79V1.25h-0.01l-0.95,3.04h-0.65l-0.95-3.01h-0.01v3.01h-0.79V0
		H352.84z"/>
</g>
</svg>
