<?xml version="1.0" encoding="utf-8"?>
<!-- Generator: Adobe Illustrator 22.1.0, SVG Export Plug-In . SVG Version: 6.00 Build 0)  -->
<svg version="1.1" id="Layer_1" xmlns="http://www.w3.org/2000/svg" xmlns:xlink="http://www.w3.org/1999/xlink" x="0px" y="0px"
	 viewBox="0 0 355.8 142.1" style="enable-background:new 0 0 355.8 142.1;" xml:space="preserve">
<style type="text/css">
	.st0{fill:#FFFFFF;}
	.st1{fill:#E43D30;}
</style>
<g>
	<path class="st0" d="M132.4,100.1c0,10,0,20,0,30c0,2.9-0.5,5.6-2.4,7.9c-3.5,4.2-7.9,4.7-12.1,3.4c-4.3-1.4-7-5.4-7-10.4
		c-0.1-9.3,0-18.7,0-28c0-1.5,0-3-0.2-4.5c-0.1-0.6-0.3-1.4-0.8-1.6c-0.4-0.2-1.4,0.2-1.7,0.6c-2.2,2.9-4.4,5.8-6.4,8.9
		c-0.4,0.6-0.2,2,0.3,2.7c1.5,2.4,3.3,4.6,4.9,6.9c0.6,0.8,1.2,1.6,1.6,2.5c1.4,2.9,0.5,4.4-2.7,4.6c-3.2,0.2-6.3,0-9.5,0
		c-1,0-2,0-3,0c-2.2,0-3.7,0.9-4.9,2.7c-2.4,3.8-5,7.4-7.6,11c-2.2,3-4.9,5.2-9.1,5.2c-4.1,0-7.1-1.6-9.2-5c-2.2-3.6-2.4-7.5,0-11.2
		c2.4-3.6,5.1-7,7.6-10.5c0.8-1.1,1.5-2.2,2.2-3.3c1.2-1.9,0.1-5.2-2.1-6c-0.4-0.1-1.2,0.3-1.5,0.7c-2.2,2.9-4.3,5.9-6.4,8.9
		c-4.7,6.6-9.4,13.3-14,19.9c-3.9,5.7-6.2,8.2-15.2,5.1c-17-5.8-27.1-17.6-29.9-35.6c-3.4-21.5,11.4-42.9,33.2-48
		c12.3-2.8,23.9-0.5,34.6,6.5c6.2,4.1,6,14.6-0.7,17.8c-4,1.9-7.6,1.6-11.2-0.7c-3.8-2.5-8-4-12.6-4c-10-0.1-20.2,7.1-22.3,18.2
		c-2.5,12.8,6.5,25.4,19.4,26.8c0.8,0.1,1.7,0,2.5,0.1c1.9,0.2,2.7-0.5,2.6-2.5c-0.1-5.8,0.3-11.7-0.1-17.5
		c-0.4-5.3,3.5-9.4,9.1-9.1c8.3,0.5,16.6,0.1,25,0.2c2.4,0,3.8-0.8,5.3-2.7c7.6-9.7,15.3-19.2,23.1-28.7c3.6-4.4,8.3-5.5,13.3-3.6
		c4.7,1.8,7.8,6.3,7.8,11.6C132.4,79.8,132.4,90,132.4,100.1z"/>
	<path class="st0" d="M231.6,99.3c0,10.5-0.1,21,0,31.5c0.1,4.7-2.3,7.9-6.1,10c-3.7,2-7.4,1.3-10.8-0.9c-3.1-2-4.2-4.9-4.2-8.5
		c0.1-8.5,0.1-17,0-25.5c0-2.5-0.3-5-0.5-7.5c-1.6,1.8-3.4,3.6-4.9,5.5c-3.3,3.9-6.6,7.9-9.8,11.9c-2.9,3.6-2.9,3.6,0.2,7.3
		c2.2,2.7,4.5,5.3,6.7,8c0.9,1.1,1.9,2.3,2.7,3.6c2,3.2,0.6,6.2-3.1,6.2c-10.8,0.1-21.6,0-32.5,0.1c-2.2,0-3.5-0.9-4.3-2.7
		c-0.8-1.8,0.2-3.1,1.3-4.5c3.4-4.1,6.8-8.2,10.2-12.3c0.9-1.1,1.6-1.9,0.4-3.4c-5.1-6.1-10.1-12.4-15.1-18.5
		c-0.2-0.2-0.6-0.3-0.9-0.5c-0.1,0.3-0.3,0.6-0.4,0.9c0,1.3,0,2.7,0,4c0,8.7,0,17.3,0,26c0,2.7-0.5,5.3-2.2,7.5
		c-2.8,3.8-7.7,5.4-12,4c-3.9-1.2-7.1-5.4-7.6-9.7c0-0.3,0-0.7,0-1c0-20.7,0-41.3,0-62c0-4.7,1.9-8.3,6.1-10.5
		c4.4-2.3,9.8-1.1,13.4,3.1c4.8,5.7,9.4,11.6,14.1,17.4c3.7,4.5,7.4,9,11,13.5c1.3,1.7,2.1,1.4,3.3-0.1c3.9-4.8,7.8-9.5,11.8-14.2
		c4.9-5.8,9.8-11.8,14.8-17.5c2.7-3.1,6.1-4.2,10.3-2.9c5.4,1.8,7.9,4.9,8,10.6C231.6,78.7,231.6,89,231.6,99.3z"/>
	<path class="st0" d="M304.5,141.7c-4.8,0-9.6,0-14.5,0c-0.8,0-1.7,0.1-2.5,0c-3.8-0.3-4.4-1.5-2.3-4.6c2.5-3.7,5.1-7.3,7.8-10.9
		c2.2-3,4.9-4.7,8.9-4.4c4.6,0.3,9.3,0.2,14,0c2-0.1,4-0.3,5.9-0.8c4.1-1,5.4-5.4,2.4-8.4c-1.1-1.1-2.6-2.1-4.1-2.7
		c-3.9-1.8-7.9-3.4-11.9-5c-4.4-1.9-8.7-4-12.4-7.2c-12.4-11-9.1-28.6,2.9-36.7c4.6-3.2,9.8-4.7,15.4-4.9c5.5-0.2,10.9-0.2,16.1,2
		c6.3,2.7,11.5,6.5,14.8,12.7c2.7,5.1,1.7,10-2.4,13.3c-3.6,2.9-10,2.8-13.5-1.1c-1.6-1.7-3-3.6-4.5-5.3c-2.7-3.2-7-4.3-10.7-2.7
		c-4.2,1.8-5.5,6.5-2.1,9.7c2.5,2.3,5.7,3.9,8.8,5.4c5.7,2.9,11.8,5.1,17.1,8.9c3.4,2.5,6.5,5.4,7.8,9.4
		c4.1,12.5,0.6,26.8-14.7,31.6c-4.3,1.3-8.7,2-13.2,1.9C313.1,141.6,308.8,141.7,304.5,141.7z"/>
	<path class="st0" d="M238.5,99.4c0-11.3,0-22.7,0-34c0-5.9,2.1-8.2,8-8.2c10.6-0.1,21.3-0.2,32-0.1c5.9,0,10.1,4.1,10.2,9.4
		c0.1,5.3-3.8,9.5-9.3,9.6c-5.7,0.1-11.3,0.1-17,0c-2.3-0.1-2.9,0.8-2.8,2.9c0.1,2.8,0.1,5.7,0,8.5c-0.1,2.1,0.8,2.6,2.6,2.5
		c3.3-0.1,6.7-0.1,10,0c5.1,0.1,9,3.7,9.3,8.4c0.3,4.9-3.5,9.2-8.8,9.6c-3.5,0.3-7,0.1-10.5,0c-1.9-0.1-2.8,0.4-2.6,2.5
		c0.3,3.8,0.4,7.5,0.6,11.3c3.5,0.1,6.9,0.2,10.4,0.3c4.3,0.1,8.7,0,13,0c1,0,2-0.1,3,0.1c1.5,0.2,2.2,1.6,1.3,2.9
		c-3.1,4.5-6.1,9.1-9.4,13.4c-1.9,2.4-4.7,3.6-7.9,3.6c-8.3,0-16.6,0.1-25,0c-5-0.1-7.1-2.3-7.1-7.4
		C238.5,122.7,238.5,111,238.5,99.4z"/>
	<path class="st0" d="M229.3,0.8c6.3,0,12.7,0.1,19,0c5.1-0.1,7.9,1.9,8,7.8c0.1,11.8,0,23.7,0.1,35.5c0,4.7-3.5,7.3-7.2,7
		c-3.4-0.3-5.5-2.1-5.6-5.7c-0.1-5.2,0-10.3,0-15.5c0-4.5-0.1-9,0.1-13.5c0.1-2-0.7-2.6-2.6-2.5c-2.6,0.2-5.3,0.2-7.9,0.3
		c-0.2,2.6-0.6,5.2-0.6,7.8c-0.1,6.7,0,13.3-0.1,20c0,1.6-0.4,3.3-0.7,4.9c-0.6,2.9-2.8,4-5.4,4.2c-3.1,0.3-5.4-0.9-6.4-3.6
		c-0.7-1.8-0.9-3.9-0.9-5.8c-0.1-8.3-0.1-16.7,0-25c0-2.2-0.7-2.9-2.9-2.8c-4.5,0.1-9,0-13.5,0c-1,0-2,0.1-3-0.1
		c-1.7-0.3-2.5-2-1.4-3.4c2-2.7,4.1-5.2,6.3-7.8c1.4-1.7,3.4-1.8,5.5-1.8C216.3,0.8,222.8,0.8,229.3,0.8z"/>
	<path class="st0" d="M300.4,26.1c0,6,0.1,12,0,18c-0.1,4.9-3,7.2-7.7,6.9c-2-0.1-3.3-1.1-4.4-2.8c-3.8-6.2-7.8-12.3-11.7-18.4
		c-0.8-1.2-1.7-2.4-2.6-3.5c-0.2,1.4-0.5,2.8-0.5,4.2c-0.1,4.7,0.1,9.3-0.1,14c-0.2,4.7-3.5,7.3-8,6.5c-2.4-0.4-4.4-1.5-4.9-4.3
		c-0.2-1.5-0.7-2.9-0.7-4.4c0-11-0.1-22,0-33c0-5,1.4-7.1,4.8-8.3c3.3-1.1,5.9,0,8.1,3.6c3.6,5.8,7.1,11.5,10.7,17.3
		c0.5,0.8,1,1.7,1.6,2.5c0.4,0.5,0.9,0.9,1.3,1.4c0.1-0.6,0.4-1.3,0.4-1.9c0-4.7,0-9.3,0-14c0-1.5,0.2-3,0.6-4.4
		c0.9-3.3,2.7-4.7,6.1-4.7c3.4,0,5.3,1.2,6.2,4.5c0.4,1.4,0.6,2.9,0.6,4.4C300.4,15.2,300.4,20.6,300.4,26.1
		C300.4,26.1,300.4,26.1,300.4,26.1z"/>
	<path class="st0" d="M50.7,26c0-6.2,0-12.3,0-18.5c0-5,1.6-6.5,6.5-6.6c4.3-0.1,8.7,0.1,13,0C82.8,0.5,93,8.5,94.4,23.4
		c0.7,7.8-1.1,15.2-6.9,21.1c-4.1,4.2-9.1,6.5-15.1,6.5c-5.2,0-10.3,0-15.5,0c-4.6,0-6.2-1.7-6.2-6.4C50.7,38.3,50.7,32.2,50.7,26z
		 M63.7,25.9c0,4,0,8,0,12c0,1.2,0.4,1.9,1.7,1.9c7.5,0.2,14.4-1.1,15.8-10.7c1.5-9.9-2.8-17.7-14.9-17c-1.8,0.1-2.7,0.9-2.6,2.8
		C63.8,18.6,63.7,22.2,63.7,25.9z"/>
	<path class="st0" d="M97.8,25.7c0-5.8,0-11.6,0-17.5c0.1-5.6,1.9-7.3,7.5-7.3c4.5,0,9,0,13.5,0c13.4,0,22.5,11.1,22.8,22.8
		c0.1,5.9-0.4,11.5-3.7,16.7c-4.4,6.8-10.4,10.5-18.5,10.6c-5,0-10,0-15,0c-4.4,0-6.4-1.9-6.5-6.2C97.7,38.3,97.8,32,97.8,25.7z
		 M110.8,26.3c0,3.6,0,7.3,0,10.9c0,0.2,0,0.3,0,0.5c-0.1,1.4,0.4,2.2,2,2.1c1.7-0.1,3.4,0.2,5-0.2c6-1.2,8.6-2.5,10.4-8.9
		c3.1-11.1-3.7-19.7-14.7-18.6c-1.8,0.2-2.7,0.9-2.7,2.8C110.8,18.7,110.8,22.5,110.8,26.3z"/>
	<path class="st0" d="M45.5,26c0,6.2,0.1,12.3,0,18.5C45.4,48.7,42.9,51,39,51c-3.8,0-6.1-2.5-6.2-6.8c-0.1-5.3,0-10.7,0-16
		c0-1.3-0.2-2.6-0.3-3.9c-1,1-2.1,1.9-3,3c-2.3,3.2-2.2,3.2,0.1,6.8c1,1.5,3,2.7,2,4.8c-1,2.1-3.3,1-4.9,1.1
		c-7.2,0.2-5.1-0.9-9.2,4.8c-1,1.3-2,2.7-2.9,4c-2.1,3-6.4,2.9-8.9,1.1c-2.6-1.9-3.1-5.6-1.1-8.8c1.5-2.4,3.1-4.7,4.9-6.8
		c1.3-1.5,1-2.5,0-3.8c-1.1-1.5-2.3-2.9-3.2-4.4c-1.4-2.4-0.7-3.8,2-3.9c0.2,0,0.3,0,0.5,0c3.1-0.1,6.8,0.7,9.3-0.6s3.9-4.7,5.9-7.2
		c2.9-3.6,5.8-7.3,8.9-10.7c2.4-2.7,5.7-3.5,8.5-2.1c2.9,1.4,4.4,3.8,4.3,7.2C45.4,14.3,45.5,20.2,45.5,26z"/>
	<path class="st0" d="M341.9,21.9c2.5,0,5-0.1,7.5,0c2.1,0.1,3,1.5,2,3.3c-1.5,2.6-3.2,5.1-5.1,7.3c-0.7,0.8-2.3,1.4-3.5,1.3
		c-2.4-0.2-3.5,0.9-4.7,2.8c-2.6,4-5.6,7.8-8.2,11.9c-1.2,1.9-2.8,2.7-5,2.6c-6.4-0.2-11.4-3.6-15.3-8.2c-6.8-7.8-7.9-17-4.4-26.5
		c3.6-9.6,11.2-14.6,21-16.1c6.2-1,12.1,0.9,17.5,4.3c4.3,2.8,4.1,8.3-0.1,10.7c-2.4,1.4-5,1-7.5-0.6c-4.8-3.1-9.8-2.6-14.5,0.3
		c-4.4,2.7-6.8,9.1-5.5,13.9c1.7,6.1,6.3,9.9,12,10.3c1.8,0.1,2.8-0.3,2.7-2.4c-0.1-3.3-0.1-6.7,0-10c0.1-3.5,1.3-4.7,4.8-4.8
		C337.6,21.8,339.8,21.9,341.9,21.9z"/>
	<path class="st0" d="M189.6,0.8c2.3,0,4.7-0.1,7,0c1.9,0.1,2.7,1.2,1.7,2.6c-3.1,4.4-5.8,9.1-12.3,9.7c-5.7,0.5-10.2,3.4-11.9,9.5
		c-2.1,7.4,3.2,15.5,10.9,16.4c6.4,0.7,11.9-2,14.6-8.6c1.6-3.9,3.2-4.8,6.7-4.7c4.1,0.2,6.5,3.5,5.4,7.5
		c-2.4,8.4-7.9,13.9-16.1,16.9c-13.7,5.1-29.4-2.9-33.3-16.7c-5.3-19,8.9-33,23.2-32.8C187,0.8,188.3,0.8,189.6,0.8L189.6,0.8z"/>
	<path class="st0" d="M144.8,25.8c0-6.2-0.1-12.3,0-18.5c0.1-3.8,2.6-6.5,6-6.8c2.9-0.2,6,1.9,6.9,5.2c0.4,1.4,0.4,2.9,0.4,4.4
		c0,10,0.1,20,0,30c0,2-0.1,4-0.6,5.9c-0.4,1.5-1.4,3-2.5,4c-3.5,3.1-9.2,0.8-10.2-4.2c-0.2-1-0.1-2-0.1-3
		C144.8,37.1,144.8,31.4,144.8,25.8C144.8,25.8,144.8,25.8,144.8,25.8z"/>
</g>
<g>
	<path class="st1" d="M348.1,0.8V0h3.2v0.8h-1.2v3.5h-0.9V0.8H348.1z"/>
	<path class="st1" d="M352.8,0l0.9,3h0l0.9-3h1.2v4.3H355v-3h0l-1,3h-0.6l-1-3h0v3h-0.8V0H352.8z"/>
</g>
</svg>
