<?xml version="1.0" encoding="utf-8"?>
<!-- Generator: Adobe Illustrator 23.0.3, SVG Export Plug-In . SVG Version: 6.00 Build 0)  -->
<svg version="1.1" xmlns="http://www.w3.org/2000/svg" xmlns:xlink="http://www.w3.org/1999/xlink" x="0px" y="0px"
	 viewBox="0 0 394.05 138.7" style="enable-background:new 0 0 394.05 138.7;" xml:space="preserve">
<style type="text/css">
	.st0{fill:none;}
	.st1{fill:#3377CC;}
	.st2{fill:#FFFFFF;}
</style>
<g id="Bounding_box">
	<rect x="-38.45" y="-38.78" class="st0" width="463.18" height="210.72"/>
</g>
<g id="Shockwave">
	<path id="r_2_" class="st1" d="M394.05,79.81c0,1.44-0.51,2.68-1.54,3.7c-1.02,1.02-2.26,1.53-3.7,1.53
		c-1.44,0-2.68-0.51-3.69-1.53c-1.03-1.03-1.54-2.26-1.54-3.7c0-1.45,0.51-2.68,1.54-3.7c1.01-1.02,2.25-1.53,3.69-1.53
		c1.44,0,2.67,0.51,3.7,1.53C393.54,77.13,394.05,78.36,394.05,79.81z"/>
	<path id="r_3_" class="st1" d="M393.15,78.79c0,1.44-0.51,2.68-1.54,3.7c-1.02,1.02-2.26,1.53-3.7,1.53
		c-1.44,0-2.68-0.51-3.69-1.53c-1.03-1.03-1.54-2.26-1.54-3.7c0-1.45,0.51-2.68,1.54-3.7c1.01-1.02,2.25-1.53,3.69-1.53
		c1.44,0,2.67,0.51,3.7,1.53C392.64,76.11,393.15,77.34,393.15,78.79z"/>
	<g id="text_2_">
		<g>
			<g>
				<path class="st1" d="M361.32,87.02c-8.87,0-15.51-4.48-18.22-12.29l-0.06-0.17c-0.13-0.42-2.6-8.97,1.59-16.32
					c2.51-4.39,6.84-7.38,12.89-8.88c2.21-0.55,4.35-0.83,6.36-0.83c5.71,0,10.61,2.29,14.19,6.62c3.38,4.09,4.73,8.99,4.56,9.87
					c0.01,0.05,0.04,0.19,0.07,0.35c0.18,1,0.6,3.33-2.26,4.38c-2.46,0.9-17.53,2.46-22.22,2.92c0.5,1.35,1.68,3.51,4.17,3.67
					c0.56,0.04,1.05,0.05,1.49,0.05c2.43,0,2.81-0.46,3.3-1.04l0.06-0.08c0.11-0.14,0.2-0.29,0.28-0.44
					c0.61-1.05,1.34-1.94,4.09-2.19c3.08-0.28,7.87-0.85,7.92-0.85l0.21-0.03l0.2,0.06c0.14,0.04,1.35,0.45,1.88,1.68
					c0.38,0.88,0.29,1.88-0.27,2.99c-1.29,2.56-5.2,10.36-19.93,10.5L361.32,87.02z M362.62,58.78c-0.32,0-0.66,0.03-1.01,0.08
					c-1.93,0.28-3.26,0.97-3.97,2.06c-0.59,0.91-0.65,1.95-0.6,2.66l10.16-1.3C366.74,60.96,365.55,58.78,362.62,58.78L362.62,58.78
					z"/>
				<path class="st1" d="M363.88,49.53c14.34,0,17.88,14.68,17.76,15.3c-0.14,0.71,1.15,2.99-1.56,3.99
					c-2.71,0.99-23.17,2.99-23.17,2.99s1,5.26,5.4,5.55c0.58,0.04,1.1,0.05,1.56,0.05c3,0,3.51-0.74,4.13-1.48
					c0.71-0.86,0.58-1.99,3.69-2.27c3.13-0.29,7.95-0.86,7.95-0.86s2.29,0.71,1.01,3.27c-1.29,2.56-4.98,9.81-19.05,9.95
					c-0.1,0-0.19,0-0.29,0c-13.83,0-16.92-10.67-17.34-11.8c0,0-5.68-19.05,13.79-23.88C360,49.78,362.03,49.53,363.88,49.53
					 M356.2,64.69l12.23-1.56c0,0-0.73-5.35-5.81-5.35c-0.36,0-0.75,0.03-1.16,0.09C354.49,58.86,356.2,64.69,356.2,64.69
					 M363.88,47.53c-2.08,0-4.3,0.29-6.59,0.86c-6.33,1.57-10.87,4.72-13.52,9.36c-4.41,7.72-1.81,16.66-1.7,17.04l0.02,0.06
					l0.02,0.06l0.05,0.15c2.85,8.24,9.84,12.96,19.16,12.96l0.31,0c15.35-0.15,19.46-8.36,20.82-11.05
					c0.86-1.73,0.64-3.04,0.29-3.84c-0.68-1.61-2.2-2.15-2.5-2.24l-0.05-0.02c0.24-0.06,0.43-0.12,0.59-0.17
					c2.42-0.89,3.4-2.74,2.91-5.5c-0.02-0.1-0.04-0.19-0.05-0.27c0.04-1.71-1.61-6.56-4.79-10.41
					C375.07,49.95,369.89,47.53,363.88,47.53L363.88,47.53z M358.09,62.43c0.07-0.33,0.19-0.67,0.39-0.98
					c0.55-0.83,1.65-1.37,3.27-1.6c0.3-0.04,0.6-0.07,0.87-0.07c1.62,0,2.56,0.81,3.11,1.67L358.09,62.43L358.09,62.43z
					 M359.72,73.53c2.22-0.22,5.33-0.55,8.49-0.92c-0.77,0.49-1.2,1.11-1.55,1.73c-0.07,0.12-0.14,0.25-0.19,0.3l-0.06,0.08
					c-0.34,0.41-0.57,0.68-2.53,0.68c-0.42,0-0.91-0.02-1.43-0.05C361.13,75.27,360.27,74.42,359.72,73.53L359.72,73.53z"/>
			</g>
			<g>
				<path class="st1" d="M325.53,83.73c-3.44,0-9.06-0.96-9.3-1c-0.08-0.01-2.75-0.4-3.63-3.56c-0.71-2.54-6.86-28.08-7.12-29.17
					c-0.04-0.13-0.44-1.67,0.45-2.84c0.39-0.51,1.16-1.12,2.64-1.12c0.17,0,0.34,0.01,0.53,0.02l7.86,0.58l0.18,0.1
					c0.33,0.17,3.24,1.76,3.24,4.01c0,0.98,1.6,8.85,2.96,15.23l5.76-15.3c0.05-0.13,1.11-2.64,4.37-2.64c0.1,0,0.2,0,0.31,0.01
					c2.86,0.15,6.88,0.7,7.05,0.73c0.19,0.03,1.7,0.31,2.45,1.52c0.3,0.49,0.58,1.31,0.21,2.46c-0.71,2.3-11.79,27.06-12.26,28.11
					c-0.05,0.15-0.82,2.03-3.82,2.7C326.95,83.68,326.33,83.73,325.53,83.73C325.53,83.73,325.53,83.73,325.53,83.73z"/>
				<path class="st1" d="M308.57,47.04c0.14,0,0.29,0.01,0.45,0.02l7.67,0.57c0,0,2.7,1.42,2.7,3.12c0,1.7,3.7,18.77,3.7,18.77
					l6.96-18.48c0,0,0.81-2,3.43-2c0.08,0,0.17,0,0.26,0.01c2.85,0.14,6.96,0.72,6.96,0.72s2.57,0.42,1.85,2.69
					c-0.7,2.28-12.22,28.01-12.22,28.01s-0.57,1.56-3.12,2.13c-0.43,0.09-1.01,0.13-1.69,0.13c-3.39,0-9.13-0.99-9.13-0.99
					s-2.13-0.29-2.83-2.84c-0.71-2.56-7.11-29.14-7.11-29.14S305.68,47.04,308.57,47.04 M308.57,45.04L308.57,45.04
					c-1.9,0-2.92,0.82-3.44,1.52c-1.11,1.46-0.73,3.25-0.61,3.7c0.35,1.44,6.41,26.63,7.12,29.18c0.83,2.99,3.17,4.09,4.45,4.28
					c0.5,0.09,6.01,1.01,9.44,1.01c0.88,0,1.57-0.06,2.12-0.18c3.19-0.71,4.27-2.7,4.52-3.27c1.19-2.65,11.59-25.91,12.3-28.24
					c0.47-1.49,0.09-2.6-0.32-3.27c-0.96-1.56-2.76-1.92-3.11-1.98c-0.22-0.03-4.29-0.59-7.19-0.74c-0.13-0.01-0.25-0.01-0.36-0.01
					c-3.14,0-4.8,2.04-5.29,3.25l-4.57,12.13c-1.14-5.47-2.2-10.8-2.23-11.68c0-2.76-3.14-4.55-3.78-4.88l-0.37-0.19l-0.41-0.03
					l-7.67-0.57C308.97,45.05,308.77,45.04,308.57,45.04L308.57,45.04z"/>
			</g>
			<g>
				<path class="st1" d="M299.28,82.71c-2.7,0-6.38-0.26-6.54-0.27l-0.13-0.01l-0.12-0.04c-0.12-0.04-2.59-0.9-3.18-3.13
					c-1.55,1.36-4.71,3.26-10.28,3.26l-0.48,0c-6.92-0.13-10.32-2.4-11.96-4.29c-1.87-2.15-2.6-5.01-2.17-8.51
					c1.2-9.71,10.98-10.39,18.12-10.88c3.37-0.23,6.86-0.47,6.97-1.7c0.06-0.66-0.08-1.16-0.43-1.55c-0.55-0.61-1.66-0.95-3.03-0.95
					c-1.74,0-3.28,0.55-3.85,1.07c-1.84,1.68-4.44,1.87-6.23,1.87c-0.38,0-0.73-0.01-1.04-0.02l-0.3-0.01
					c-1.6-0.05-3.86-0.32-3.96-0.33l-0.13-0.02l-0.12-0.05c-0.19-0.08-1.9-0.79-2.53-2.39c-0.35-0.88-0.29-1.86,0.17-2.84
					c1.34-2.83,5.34-6.4,12.19-7.15c1.03-0.11,2.17-0.17,3.39-0.17c5.96,0,13.15,1.34,15.39,2.87c0.23,0.15,0.46,0.3,0.69,0.45
					c2.56,1.66,5.21,3.38,4.97,10.46c-0.25,7.1-1.35,20.67-1.36,20.8c0.02,1.33-0.94,3.48-3.65,3.52L299.28,82.71z M288.27,67.28
					c-3.54,0.83-7.2,1.95-7.74,2.54c-0.78,1-0.4,2.33,0.02,2.93c0.34,0.49,1.15,0.78,2.15,0.78c0.66,0,1.37-0.12,2.02-0.35
					C286.2,72.65,287.79,71.7,288.27,67.28L288.27,67.28z"/>
				<path class="st1" d="M283.64,45.61c5.94,0,12.88,1.36,14.83,2.69c2.69,1.81,5.47,2.91,5.22,10.05
					c-0.25,7.15-1.36,20.76-1.36,20.76s0.03,2.56-2.67,2.6c-0.13,0-0.26,0-0.39,0c-2.7,0-6.47-0.27-6.47-0.27s-2.48-0.83-2.62-2.96
					c-0.05-0.86-0.5-1.1-0.5-1.1s-2.61,4.15-10.67,4.15c-0.15,0-0.31,0-0.46,0c-2.85-0.05-14.53-0.47-13.15-11.68
					c1.77-14.37,24.6-7.17,25.1-12.62c0.24-2.63-2.06-3.59-4.46-3.59c-1.8,0-3.66,0.54-4.53,1.33c-1.55,1.41-3.86,1.61-5.55,1.61
					c-0.51,0-0.96-0.02-1.32-0.03c-1.57-0.05-3.86-0.32-3.86-0.32s-3.08-1.22-1.83-3.87c1.25-2.64,5.03-5.88,11.39-6.58
					C281.39,45.66,282.5,45.61,283.64,45.61 M282.71,74.53c0.78,0,1.6-0.14,2.35-0.41c1.96-0.7,4-2.11,4.31-8.12
					c0,0-8.57,1.85-9.62,3.19c-1.05,1.35-0.71,3.13-0.02,4.13C280.32,74.16,281.46,74.53,282.71,74.53 M283.64,43.61
					c-1.26,0-2.43,0.06-3.5,0.17c-7.26,0.8-11.53,4.65-12.98,7.71c-0.73,1.56-0.51,2.84-0.2,3.63c0.79,1.99,2.86,2.86,3.09,2.96
					l0.24,0.1l0.26,0.03c0.1,0.01,2.4,0.29,4.04,0.33l0.31,0.01c0.22,0.01,0.47,0.01,0.74,0.02c-5.7,1.03-11.3,3.58-12.22,11.02
					c-0.46,3.79,0.34,6.92,2.41,9.29c1.77,2.04,5.41,4.5,12.7,4.63c0.17,0,0.33,0,0.5,0c4.82,0,7.97-1.38,9.89-2.71
					c0.86,1.38,2.3,2.2,3.25,2.52l0.24,0.08l0.25,0.02c0.16,0.01,3.88,0.28,6.61,0.28l0.41,0c3.39-0.05,4.62-2.69,4.65-4.51
					c0.09-1.12,1.12-13.93,1.36-20.77c0.26-7.65-2.76-9.61-5.42-11.33c-0.23-0.15-0.45-0.29-0.68-0.45
					C296.93,44.83,289.19,43.61,283.64,43.61L283.64,43.61z M280.08,58.02c0.97-0.31,1.95-0.81,2.79-1.57
					c0.37-0.34,1.69-0.81,3.18-0.81c1.27,0,2.03,0.34,2.29,0.63c0.06,0.07,0.2,0.22,0.18,0.66c-0.76,0.55-3.93,0.77-6.06,0.91
					C281.71,57.89,280.91,57.95,280.08,58.02L280.08,58.02z M281.27,70.51c0.7-0.47,3.16-1.24,5.78-1.91
					c-0.61,2.9-1.86,3.34-2.67,3.63c-0.53,0.19-1.13,0.29-1.67,0.29c-0.79,0-1.24-0.21-1.33-0.35
					C281.18,71.89,280.9,71.1,281.27,70.51L281.27,70.51z"/>
			</g>
			<g>
				<path class="st1" d="M227.03,83.9c-0.41,0-4.1-0.14-6.54-5.01c-1.27-2.55-9.94-22.73-10.3-23.58c-0.07-0.15-0.65-1.58,0.09-3.21
					c0.63-1.4,2.01-2.45,4.09-3.13c0.96-0.32,1.1-0.36,1.36-0.36h0.11l0.19,0.03l0.11,0.01c0.2,0,0.62-0.03,1.51-0.15l0.07-0.01
					l0.12,0c0.54,0,3.32,0.26,4.75,5.31c0.6,2.12,3.32,8.38,5.03,12.24l1.63-11.78c0.03-0.73,0.46-7.05,5.48-7.6
					c2.8-0.31,4.76-0.43,4.88-0.43c0,0,0.11-0.01,0.3-0.01c1.95,0,4.15,0.91,4.57,3.45l5.13,13.42l2.28-15.13
					c0.05-0.56,0.5-2.97,4.58-3.44c3.6-0.41,5.83-0.55,6.01-0.57c0,0,0.12-0.01,0.29-0.01c0.6,0,1.72,0.13,2.5,0.99
					c0.57,0.63,0.8,1.49,0.69,2.54c-0.28,2.72-4.99,24.61-5.19,25.54c-0.07,0.27-1.49,5.8-6.22,7.86l-0.14,0.06l-5.74,0.58
					l-0.19-0.06c-0.17-0.05-4.13-1.3-6.18-6.39c-0.79-1.98-2.47-6.53-3.69-9.89l-1.16,9.82c-0.06,2.33-1.5,7.2-6.41,8.39l-0.1,0.02
					l-3.81,0.51L227.03,83.9z"/>
				<path class="st1" d="M262.76,44.94c0.64,0,2.43,0.2,2.19,2.42c-0.28,2.7-5.18,25.44-5.18,25.44s-1.31,5.27-5.64,7.15l-5.39,0.54
					c0,0-3.65-1.1-5.54-5.8c-1.31-3.26-5.12-13.81-5.12-13.81l-1.66,14c0,0-0.18,6.21-5.65,7.53l-3.75,0.5c0,0,0,0-0.01,0
					c-0.16,0-3.44-0.06-5.65-4.46c-1.27-2.55-10.28-23.53-10.28-23.53s-1.46-3.36,3.57-5c0.77-0.25,0.95-0.31,1.05-0.31
					c0.08,0,0.12,0.04,0.41,0.04c0.26,0,0.74-0.03,1.65-0.16c0,0,0.02,0,0.05,0c0.37,0,2.54,0.19,3.79,4.58
					c0.91,3.25,6.51,15.56,6.51,15.56l2.12-15.28c0,0,0.18-6.21,4.59-6.7c2.84-0.32,4.83-0.43,4.83-0.43s0.09-0.01,0.24-0.01
					c0.78,0,3.25,0.2,3.6,2.71l6.53,17.07l2.85-18.92c0,0,0-2.13,3.7-2.56c3.7-0.42,5.97-0.56,5.97-0.56S262.63,44.94,262.76,44.94
					 M262.76,42.94c-0.18,0-0.32,0.01-0.39,0.02c-0.33,0.02-2.54,0.17-6.03,0.57c-4.14,0.48-5.37,2.87-5.47,4.35l-1.7,11.3
					l-3.74-9.78c-0.48-2.55-2.62-4.18-5.54-4.18c-0.19,0-0.32,0.01-0.38,0.01c-0.26,0.02-2.2,0.13-4.91,0.44
					c-4.78,0.53-6.24,5.54-6.36,8.51l-1.14,8.23c-1.56-3.58-3.15-7.39-3.56-8.87c-1.59-5.61-4.77-6.04-5.71-6.04
					c-0.16,0-0.24,0.01-0.24,0.01l-0.02,0l-0.08,0.01c-0.87,0.12-1.23,0.14-1.36,0.14c-0.11-0.02-0.25-0.04-0.43-0.04c0,0,0,0,0,0
					c-0.42,0-0.65,0.08-1.61,0.39l-0.06,0.02c-2.36,0.77-3.93,2-4.68,3.67c-0.91,2.02-0.18,3.82-0.09,4.02
					c0.37,0.85,9.04,21.06,10.32,23.63c2.71,5.41,6.96,5.56,7.44,5.56h0.13l0.14-0.02l3.75-0.5l0.1-0.01l0.1-0.02
					c5.43-1.31,7.06-6.61,7.18-9.32l0.66-5.58c0.88,2.39,1.75,4.72,2.26,5.99c2.22,5.53,6.63,6.92,6.81,6.97l0.38,0.11l0.4-0.04
					l5.39-0.54l0.31-0.03l0.29-0.13c5.17-2.25,6.72-8.25,6.78-8.5l0.01-0.03l0.01-0.03c0.5-2.34,4.93-22.92,5.21-25.65
					c0.18-1.67-0.41-2.72-0.94-3.31C264.97,43.11,263.53,42.94,262.76,42.94L262.76,42.94z"/>
			</g>
			<g>
				<path class="st1" d="M204.45,84.63c-2.12,0-4.31-0.25-4.4-0.26c-0.2-0.03-3.57-0.64-5.91-4.21c-0.86-1.31-3.25-5.35-4.39-7.3
					l-1.31,1.17l-0.18,4.7c-0.12,1.95-1.26,5.58-4.75,5.58c-0.14,0-0.28-0.01-0.43-0.02l-4.08-0.03c-0.44-0.04-3.63-0.4-5.19-2.38
					c-0.66-0.84-0.94-1.88-0.8-2.99l0.73-37.86c0.14-2.08,1.46-5.91,5.49-5.91l0.19,0c1.94,0.06,2.88,0.24,3.37,0.47
					c2.29,0.16,6.17,1.52,6.09,5.79c-0.04,1.67-0.15,10.78-0.21,15.46l4.66-5.5c0.09-0.11,2.49-3.03,5.88-3.03l0.12,0
					c3,0.06,5.64,0.3,5.75,0.31l0.13,0.01l0.12,0.05c0.25,0.09,2.5,0.97,3.11,2.94c0.24,0.78,0.31,2.02-0.76,3.52l-0.04,0.06
					l-7.03,7.54l9.27,14.78l0.02,0.05c0.13,0.27,1.27,2.71,0.28,4.73c-0.37,0.76-1.2,1.74-3.03,2.12
					C206.49,84.56,205.58,84.63,204.45,84.63L204.45,84.63z"/>
				<path class="st1" d="M179.25,36.12c0.05,0,0.11,0,0.16,0c2.85,0.08,3.1,0.45,3.1,0.45s5.48,0.16,5.39,4.78
					c-0.05,2.29-0.24,18.25-0.24,18.25l6.46-7.62c0,0,2.17-2.67,5.11-2.67c0.03,0,0.07,0,0.1,0c3,0.06,5.68,0.3,5.68,0.3
					s4.27,1.57,1.88,4.95l-7.51,8.05l9.65,15.38c0,0,2.22,4.54-2.06,5.44c-0.68,0.14-1.58,0.19-2.51,0.19
					c-2.09,0-4.29-0.25-4.29-0.25s-3.05-0.52-5.19-3.76c-1.12-1.71-4.98-8.3-4.98-8.3l-2.54,2.26l-0.19,5.12
					c0,0-0.28,4.62-3.75,4.62c-0.11,0-0.23,0-0.34-0.01l-4.15-0.04c0,0-5.53-0.53-5-4.3l0.73-37.91
					C174.75,41.06,175.09,36.12,179.25,36.12 M179.25,34.12L179.25,34.12c-4.77,0-6.33,4.45-6.49,6.8l0,0.05l0,0.05l-0.73,37.81
					c-0.16,1.37,0.19,2.63,1.01,3.68c1.82,2.31,5.39,2.72,5.79,2.75l0.09,0.01l0.09,0l4.08,0.03c0.15,0.01,0.29,0.02,0.43,0.02
					c4.24,0,5.61-4.25,5.74-6.5l0.16-4.31l0.08-0.08c1.24,2.1,3.07,5.17,3.8,6.29c2.58,3.92,6.36,4.61,6.52,4.63l0.05,0.01
					l0.05,0.01c0.09,0.01,2.34,0.26,4.52,0.26c1.21,0,2.16-0.08,2.91-0.23c2.23-0.47,3.26-1.7,3.73-2.66
					c1.2-2.45-0.13-5.3-0.28-5.61l-0.05-0.09l-0.06-0.09l-8.83-14.08l6.46-6.93l0.09-0.1l0.08-0.11c1.3-1.84,1.21-3.41,0.9-4.4
					c-0.76-2.43-3.42-3.48-3.72-3.59l-0.25-0.09l-0.26-0.02c-0.11-0.01-2.78-0.25-5.81-0.31l-0.14,0c-3.79,0-6.38,3.06-6.67,3.41
					l-2.84,3.35c0.06-4.84,0.14-11.29,0.18-12.67c0.1-4.59-3.87-6.53-6.84-6.8c-0.7-0.27-1.78-0.43-3.59-0.48
					C179.39,34.12,179.32,34.12,179.25,34.12L179.25,34.12L179.25,34.12z"/>
			</g>
			<g>
				<path class="st1" d="M150.22,88.36c-9.01,0-15.53-5.31-17.88-14.57c-1.34-5.27-0.58-10.7,2.11-14.89
					c2.8-4.37,7.42-7.18,13.74-8.35c2.05-0.38,3.99-0.57,5.78-0.57c10.01,0,13.26,5.88,14.65,8.39l0.22,0.4
					c0.49,0.86,0.59,1.77,0.29,2.63c-0.67,1.95-3.14,3.01-3.42,3.12l-0.12,0.05l-0.13,0.02c0,0-1.07,0.14-5.06,0.58
					c-0.18,0.02-0.37,0.03-0.57,0.03c-1.95,0-4.37-1.02-5.42-3.31c-0.23-0.51-0.83-0.76-1.77-0.76c-0.67,0-1.23,0.14-1.24,0.14
					c-2.86,0.8-3.88,3.14-4.06,3.58c-0.07,0.5-0.16,0.99-0.25,1.49c-0.6,3.36-1.16,6.54,2.53,10.19c0.72,0.71,1.83,1.12,3.04,1.12
					c1.27,0,2.45-0.44,3.17-1.19c0.53-0.55,0.79-1.23,0.76-2.03c-0.11-3.1,5.34-3.51,6.43-3.56l0,0c-0.01,0,2.57-0.24,3.67-0.38
					c0.09-0.01,0.18-0.02,0.27-0.02c1.11,0,2.41,0.75,3.17,1.83c0.75,1.07,0.91,2.37,0.45,3.65l-0.23,0.67
					c-1.36,3.98-3.23,9.44-16.02,11.4C152.93,88.25,151.54,88.36,150.22,88.36C150.22,88.36,150.22,88.36,150.22,88.36z"/>
				<path class="st1" d="M153.98,50.97c10,0,12.78,6.15,14,8.29c1.5,2.64-2.64,4.33-2.64,4.33s-1.06,0.14-5.03,0.57
					c-0.15,0.02-0.3,0.03-0.46,0.03c-1.54,0-3.63-0.8-4.5-2.72c-0.5-1.1-1.7-1.35-2.69-1.35c-0.82,0-1.48,0.17-1.48,0.17
					c-3.71,1.04-4.78,4.31-4.78,4.31c-0.58,3.97-2.13,8.01,2.55,12.63c0.97,0.95,2.36,1.41,3.74,1.41c2.52,0,5.02-1.5,4.93-4.25
					c-0.08-2.27,5.48-2.53,5.48-2.53s2.62-0.24,3.75-0.38c0.04-0.01,0.09-0.01,0.14-0.01c1.2,0,3.59,1.62,2.68,4.15
					c-1.39,3.94-2.54,9.44-15.46,11.42c-1.41,0.22-2.73,0.32-3.98,0.32c-10.2,0-15.14-6.85-16.91-13.82
					c-1.99-7.8,0.43-19.31,15.06-22.01C150.46,51.14,152.32,50.97,153.98,50.97 M153.98,48.97L153.98,48.97
					c-1.85,0-3.85,0.2-5.96,0.59c-6.51,1.2-11.49,4.24-14.4,8.79c-2.83,4.43-3.65,10.15-2.24,15.68
					c2.47,9.74,9.34,15.32,18.85,15.32c1.37,0,2.81-0.12,4.29-0.34c13.39-2.05,15.45-8.08,16.81-12.06
					c0.08-0.23,0.15-0.45,0.23-0.67c0.57-1.59,0.37-3.21-0.58-4.56c-0.95-1.35-2.55-2.26-3.99-2.26c-0.14,0-0.26,0.01-0.39,0.02
					c-1.02,0.13-3.3,0.34-3.65,0.37c-1.82,0.09-7.47,0.68-7.34,4.59c0.02,0.52-0.14,0.95-0.48,1.3c-0.53,0.54-1.47,0.88-2.45,0.88
					c-0.95,0-1.8-0.3-2.34-0.83c-3.32-3.28-2.85-5.94-2.25-9.3c0.08-0.47,0.17-0.94,0.24-1.4c0.2-0.47,1.09-2.24,3.34-2.88
					c0.09-0.02,0.5-0.11,0.98-0.11c0.58,0,0.83,0.13,0.86,0.16c1.23,2.7,4.07,3.91,6.33,3.91c0.24,0,0.47-0.01,0.7-0.04
					c3.93-0.43,5.02-0.57,5.06-0.58l0.26-0.03l0.24-0.1c0.53-0.22,3.19-1.41,3.98-3.72c0.39-1.14,0.27-2.34-0.37-3.45
					c-0.07-0.12-0.14-0.25-0.22-0.39C168.16,55.45,164.58,48.97,153.98,48.97L153.98,48.97z"/>
			</g>
			<g>
				<path class="st1" d="M54,90.08c-1.71-0.12-4.95-1.4-4.97-5.4l-1.14-37.91l0-0.05c0.13-1.72,1.54-5.09,5.92-5.6
					c1.27-0.15,2.41-0.23,3.38-0.23c1.21,0,1.75,0.12,1.85,0.14c1.62,0.39,4.64,1.96,4.47,5.1c-0.09,1.61,0.11,7.01,0.25,10.24
					c1.81-1.73,5.05-3.93,9.81-3.93c0.58,0,1.17,0.03,1.76,0.1c8.96,1,11.71,8.64,11.64,11.16c-0.06,2.08,0.79,20.06,0.79,20.24
					c-0.05,1.57-1,4.58-4.21,5.29l-0.08,0.02l-5.85,0.33l-0.08-0.01c-1.81-0.18-5.2-1.54-5.07-5.45c0.07-2.15-0.24-14.27-0.26-15.29
					c-0.08-0.47-0.74-3.78-3.35-3.78c-0.2,0-0.41,0.02-0.63,0.05c-2.6,0.44-3.99,1.9-4.24,4.48c-0.09,0.99,0.1,8.92,0.25,14
					c0.05,1.75-1.04,5.22-5.49,5.89l-4.69,0.58L54,90.08z"/>
				<path class="st1" d="M57.2,41.9c1.15,0,1.61,0.11,1.61,0.11s3.88,0.93,3.71,4.08c-0.14,2.42,0.36,12.86,0.36,12.86
					s3.49-5.49,10.7-5.49c0.53,0,1.08,0.03,1.65,0.09c8.34,0.93,10.81,8.01,10.76,10.15C85.93,65.83,86.78,84,86.78,84
					s-0.12,3.54-3.43,4.27l-5.69,0.33c0,0-4.3-0.42-4.17-4.42c0.07-2.29-0.26-15.41-0.26-15.41s-0.68-4.69-4.35-4.69
					c-0.25,0-0.51,0.02-0.79,0.07c-4.35,0.73-4.94,3.96-5.07,5.37c-0.13,1.41,0.25,14.13,0.25,14.13s0.11,4.15-4.64,4.87l-4.56,0.57
					c0,0-4.02-0.28-4.04-4.4L48.89,46.8c0,0,0.32-4.14,5.04-4.68C55.37,41.95,56.43,41.9,57.2,41.9 M57.2,39.9L57.2,39.9
					c-1.01,0-2.19,0.08-3.5,0.23c-5.02,0.58-6.65,4.52-6.8,6.51l-0.01,0.11l0,0.11l1.14,37.88c0.02,4.34,3.54,6.17,5.9,6.34
					l0.19,0.01l0.19-0.02l4.56-0.57l0.03,0l0.02,0c5.14-0.78,6.39-4.85,6.34-6.9c-0.18-6.1-0.33-13.04-0.26-13.89
					c0.21-2.11,1.26-3.22,3.42-3.58c0.16-0.03,0.31-0.04,0.46-0.04c1.69,0,2.25,2.39,2.35,2.88c0.04,1.45,0.32,13.08,0.26,15.15
					c-0.14,4.31,3.5,6.23,5.97,6.47l0.15,0.02l0.15-0.01l5.69-0.33l0.16-0.01l0.16-0.04c3.81-0.85,4.93-4.39,4.99-6.15l0-0.08
					l0-0.08c-0.24-5.03-0.84-18.47-0.79-20.16c0.07-2.77-2.89-11.12-12.53-12.19c-0.63-0.07-1.26-0.11-1.87-0.11
					c-3.9,0-6.85,1.39-8.9,2.87c-0.12-3.24-0.24-6.91-0.17-8.13c0.21-3.81-3.33-5.68-5.24-6.14C59.12,40.03,58.49,39.9,57.2,39.9
					L57.2,39.9L57.2,39.9z"/>
			</g>
			<g>
				<path class="st1" d="M25.47,87.28c-1.25,0-2.57-0.06-3.93-0.18c-8.42-0.76-14.46-4.11-17.94-9.95
					c-1.83-3.07-2.39-5.41-1.73-7.13c0.43-1.11,1.32-1.88,2.66-2.29l0.2-0.06l10.18,1.18c3.47,0.55,4.05,2.22,4.43,3.32
					c0.15,0.44,0.25,0.7,0.44,0.85c1,0.77,2.24,1.25,3.69,1.4c0.5,0.04,0.99,0.06,1.45,0.06c3.9,0,4.01-1.54,4.05-2.12
					c0.02-0.26-0.12-1.6-5.09-3.71l-7.85-2.83c-8-2.96-12.05-7.74-12.05-14.22c0-3.3,0.77-6.16,2.29-8.51
					c2.44-3.81,6.44-6.19,11.89-7.05c1.64-0.27,3.32-0.4,5.01-0.4c1.08,0,2.22,0.05,3.39,0.14c8.43,0.76,14.21,3.87,17.18,9.25
					c1.21,2.19,2.44,5.23,1.47,7.31c-0.32,0.68-1.01,1.55-2.53,1.84l-0.15,0.03l-8.24-0.96l-1.58-0.14
					c-3.09-0.45-3.37-2.17-3.56-3.3c-0.19-1.18-0.35-2.11-4.08-2.44c-0.19-0.02-0.38-0.02-0.56-0.02c-2.28,0-3.64,1.32-3.76,2.55
					c-0.02,0.23,0.13,1.53,5.16,3.71l7.84,2.83c7.96,2.96,12.01,7.62,12.05,13.86c0.05,4.37-1.24,8.04-3.82,10.91
					C38.38,85.23,32.83,87.28,25.47,87.28C25.47,87.28,25.47,87.28,25.47,87.28z"/>
				<path class="st1" d="M23.17,36.64c1.08,0,2.18,0.05,3.3,0.14c8.07,0.73,13.56,3.62,16.38,8.73c2.04,3.7,2.6,7.11-0.38,7.69
					l-8.09-0.94l-1.6-0.14c-5.2-0.77,0.46-5.03-7.64-5.74c-0.22-0.02-0.43-0.03-0.64-0.03c-2.86,0-4.59,1.77-4.75,3.46
					c-0.13,1.42,1.79,3,5.76,4.72c2.63,0.95,5.26,1.9,7.9,2.85c7.55,2.81,11.35,7.12,11.39,12.93c0.05,4.15-1.14,7.55-3.56,10.23
					c-3.42,3.83-8.68,5.74-15.77,5.74c-1.23,0-2.51-0.06-3.84-0.17c-8.13-0.74-13.84-3.89-17.17-9.47
					c-1.51-2.54-3.44-6.78,0.37-7.96l9.97,1.16c4.21,0.67,3.07,2.92,4.36,3.96c1.16,0.9,2.57,1.44,4.21,1.61
					c0.55,0.05,1.07,0.07,1.55,0.07c3.21,0,4.9-1.02,5.05-3.05c0.13-1.47-1.77-3.04-5.7-4.7c-2.63-0.95-5.27-1.9-7.9-2.85
					C8.78,62.07,4.99,57.64,4.99,51.6c0-3.11,0.7-5.76,2.13-7.97c2.29-3.58,6.02-5.78,11.2-6.61C19.87,36.77,21.5,36.64,23.17,36.64
					 M23.17,34.64c-1.74,0-3.48,0.14-5.18,0.42c-5.73,0.91-9.96,3.43-12.56,7.5c-1.62,2.5-2.45,5.55-2.45,9.05
					c0,6.94,4.27,12.04,12.7,15.15l4.05,1.46l3.82,1.38c3.63,1.55,4.32,2.55,4.43,2.75c-0.04,0.38-0.32,1.14-3.05,1.14
					c-0.43,0-0.89-0.02-1.39-0.06c-1.2-0.13-2.22-0.5-3.08-1.15c-0.04-0.09-0.11-0.29-0.16-0.43c-0.56-1.61-1.47-3.38-5.18-3.97
					l-0.04-0.01l-0.04,0l-9.97-1.16l-0.42-0.05l-0.4,0.12c-2.05,0.64-2.93,1.92-3.3,2.89c-0.78,2.03-0.19,4.65,1.8,8
					c3.66,6.13,9.96,9.64,18.71,10.44c1.4,0.12,2.75,0.18,4.02,0.18c7.65,0,13.46-2.16,17.26-6.41c2.75-3.05,4.12-6.95,4.07-11.59
					c-0.04-6.69-4.31-11.67-12.69-14.78l-4.25-1.54l-3.6-1.3c-3.56-1.55-4.35-2.55-4.49-2.79c0.14-0.65,1.06-1.54,2.75-1.54
					c0.15,0,0.31,0.01,0.47,0.02c2.16,0.19,2.78,0.62,2.93,0.75c0.12,0.11,0.17,0.29,0.26,0.85c0.2,1.25,0.59,3.57,4.34,4.12
					l0.06,0.01l0.06,0l1.58,0.14l8.06,0.94l0.31,0.04l0.3-0.06c1.93-0.37,2.83-1.51,3.25-2.4c0.93-1.98,0.42-4.74-1.5-8.22
					c-3.14-5.68-9.18-8.97-17.95-9.76C25.44,34.68,24.28,34.64,23.17,34.64L23.17,34.64z"/>
			</g>
			<g>
				<path class="st1" d="M109.08,88.62c-5.8,0-10.38-1.96-13.61-5.83c-1.97-2.32-3.23-5.33-3.73-8.95
					c-0.16-1.15-0.25-2.27-0.25-3.35c0-5.96,2.31-10.53,6.87-13.6c2.57-1.79,5.72-2.94,9.34-3.43c1.19-0.16,2.42-0.25,3.64-0.25
					c4.16,0,7.73,1.04,10.62,3.1c3.74,2.6,6,6.53,6.71,11.68c0.83,5.73-0.33,10.46-3.45,14.04
					C121.53,86.4,116.09,88.62,109.08,88.62L109.08,88.62z M109.87,63.66c-0.18,0-0.35,0.01-0.54,0.04
					c-1.54,0.22-2.54,1.04-3.12,2.57c-0.49,1.33-0.61,2.99-0.36,4.92c0.98,6.92,3.78,6.92,4.7,6.92c0.21,0,0.43-0.01,0.66-0.04
					c1.48-0.23,3.47-1.04,3.47-5.43c0-0.79-0.08-1.67-0.23-2.63c-0.26-1.87-0.8-3.41-1.61-4.58
					C112.01,64.24,111.04,63.66,109.87,63.66L109.87,63.66z"/>
				<path class="st1" d="M111.33,54.22c3.96,0,7.31,0.97,10.04,2.91c3.53,2.46,5.63,6.12,6.3,11c0.79,5.46-0.28,9.88-3.21,13.25
					c-3.52,4.16-8.66,6.24-15.39,6.24c-5.52,0-9.79-1.82-12.85-5.47c-1.86-2.18-3.03-4.99-3.5-8.44c-0.16-1.11-0.24-2.18-0.24-3.21
					c0-5.62,2.14-9.88,6.42-12.77c2.46-1.71,5.42-2.8,8.91-3.27C109.02,54.29,110.19,54.22,111.33,54.22 M110.54,79.1
					c0.26,0,0.52-0.02,0.79-0.05c2.89-0.44,4.34-2.58,4.34-6.42c0-0.83-0.08-1.77-0.24-2.79c-0.28-2.02-0.87-3.68-1.78-4.99
					c-1.01-1.45-2.27-2.18-3.79-2.18c-0.22,0-0.44,0.01-0.67,0.04c-1.91,0.27-3.22,1.34-3.93,3.21c-0.56,1.51-0.69,3.31-0.41,5.4
					C105.59,76.51,107.48,79.1,110.54,79.1 M111.33,52.22c-1.27,0-2.54,0.09-3.78,0.26c-3.77,0.51-7.07,1.72-9.78,3.61
					c-4.82,3.25-7.28,8.1-7.28,14.41c0,1.12,0.09,2.3,0.26,3.5c0.52,3.79,1.85,6.98,3.96,9.45c3.43,4.09,8.26,6.17,14.37,6.17
					c7.32,0,13.02-2.34,16.92-6.95c3.3-3.79,4.53-8.79,3.66-14.83c-0.75-5.42-3.15-9.58-7.14-12.36
					C119.48,53.32,115.71,52.22,111.33,52.22L111.33,52.22z M110.54,77.1c-0.71,0-2.85,0-3.71-6.07c-0.23-1.75-0.13-3.24,0.31-4.43
					c0.45-1.17,1.15-1.75,2.34-1.92c0.12-0.02,0.25-0.02,0.38-0.02c0.57,0,1.33,0.15,2.15,1.32c0.72,1.04,1.2,2.43,1.44,4.12
					c0.15,0.95,0.23,1.78,0.23,2.52c0,4.05-1.78,4.32-2.64,4.45C110.89,77.09,110.71,77.1,110.54,77.1L110.54,77.1z"/>
			</g>
			<g>
				<path class="st1" d="M99.32,135.31c-1.54,0-3.12-0.06-4.69-0.17c-0.21,0-25.23-0.89-39.54-22.2l-0.04-0.06L55,112.81
					c-0.28-0.59-2.63-5.82-0.06-8.54c0.25-0.27,0.73-0.59,1.54-0.59c1.34,0,3.36,0.93,4.91,2.27c0.42,0.36,0.88,0.99,1.59,1.94
					c3.56,4.8,11.91,16.05,31.18,16.05c0,0,0,0,0,0c0.63,0,1.27-0.01,1.92-0.04c22.2-0.84,32.25-11.12,42.88-22
					c1.09-1.12,2.18-2.23,3.29-3.35c0.8-0.8,2.44-1.74,4.4-1.74c1.56,0,3,0.61,4.17,1.77c1.17,1.17,1.47,4.22-0.07,7.3
					C150.63,106.19,135.06,135.31,99.32,135.31C99.32,135.31,99.32,135.31,99.32,135.31z"/>
				<path class="st1" d="M146.68,97.82c1.14,0,2.37,0.39,3.47,1.48c0.76,0.76,1.15,3.3-0.26,6.14
					c-1.81,3.61-17.74,28.86-50.57,28.86c-1.5,0-3.05-0.05-4.62-0.16c0,0-24.59-0.63-38.79-21.76c0,0-2.41-5.13-0.23-7.43
					c0.18-0.19,0.47-0.28,0.82-0.28c1.12,0,2.91,0.87,4.26,2.03c2.15,1.84,10.04,18.24,33.43,18.24c0.64,0,1.3-0.01,1.96-0.04
					c24.91-0.94,34.88-13.65,46.85-25.63C143.67,98.59,145.09,97.82,146.68,97.82 M146.68,95.82c-2.27,0-4.17,1.09-5.11,2.03
					c-1.11,1.12-2.21,2.24-3.3,3.35c-10.49,10.73-20.4,20.87-42.2,21.69c-0.63,0.02-1.27,0.04-1.88,0.04
					c-18.77,0-26.9-10.96-30.38-15.65c-0.75-1.01-1.24-1.68-1.75-2.11c-1.45-1.25-3.73-2.51-5.56-2.51c-1.17,0-1.88,0.49-2.27,0.91
					c-3.02,3.2-0.43,9-0.12,9.65l0.06,0.14l0.09,0.13c14.43,21.48,38.76,22.59,40.35,22.64c1.58,0.11,3.17,0.17,4.72,0.17
					c36.35,0,52.21-29.66,52.36-29.96c1.81-3.62,1.29-7.06-0.11-8.46C150.19,96.54,148.5,95.82,146.68,95.82L146.68,95.82z"/>
			</g>
			<g>
				<path class="st1" d="M77.47,39.15c-1.31,0-2.42-0.6-3.23-1.72c-0.29-0.35-1.75-2.63,1.86-8.37
					c3.28-5.21,21.39-24.82,50.05-25.44c0.45-0.01,0.89-0.01,1.34-0.01c29.61,0,35.89,21.7,36.51,24.17
					c0.95,3.81-0.29,6.91-3.59,8.98c-0.8,0.5-1.64,0.75-2.51,0.75c-2.32,0-4.71-1.77-7.32-5.42c-0.23-0.32-0.48-0.68-0.75-1.08
					c-3.53-5.11-10.87-15.74-26.76-16.02l-0.5,0c-18.69,0-36.53,18.59-36.71,18.78C85.44,34.26,81.2,39.15,77.47,39.15L77.47,39.15z
					"/>
				<path class="st1" d="M127.5,4.6c27.9,0,34.61,19.69,35.54,23.41c0.94,3.78-0.63,6.3-3.15,7.89c-0.64,0.4-1.3,0.6-1.98,0.6
					c-1.99,0-4.15-1.71-6.5-5c-3.15-4.42-10.65-17.21-28.31-17.52c-0.17,0-0.34,0-0.52,0c-19.36,0-37.44,19.09-37.44,19.09
					s-4.3,5.09-7.67,5.09c-0.91,0-1.75-0.37-2.41-1.3c0,0-1.51-1.84,1.9-7.25c2.62-4.17,20.21-24.34,49.23-24.98
					C126.63,4.61,127.06,4.6,127.5,4.6 M127.5,2.6c-0.45,0-0.9,0-1.36,0.01C97.03,3.25,78.6,23.22,75.26,28.53
					c-3.75,5.96-2.41,8.72-1.81,9.51c1,1.38,2.39,2.11,4.02,2.11c4.02,0,8.24-4.67,9.16-5.75c0.88-0.91,18.08-18.43,35.95-18.43
					c0.16,0,0.32,0,0.48,0c15.37,0.27,22.52,10.62,25.95,15.59c0.28,0.4,0.53,0.77,0.76,1.09c2.81,3.93,5.47,5.84,8.13,5.84
					c1.06,0,2.08-0.3,3.03-0.9c3.65-2.29,5.09-5.86,4.04-10.07C164.34,24.98,157.86,2.6,127.5,2.6L127.5,2.6z"/>
			</g>
			<g>
				<path class="st1" d="M93,48.55c-0.23,0-0.49-0.02-0.76-0.07c-0.82-0.13-1.45-0.55-1.84-1.22c-0.91-1.56-0.07-3.94,0.03-4.21
					l0.04-0.12l0.07-0.11c5.58-7.95,15.28-13.29,24.14-13.29c6.82,0,13.22,2.07,19.02,6.14c2.96,2.08,6.18,6.36,6.09,9.16
					c-0.03,0.94-0.45,1.71-1.17,2.15c-0.68,0.42-1.39,0.63-2.11,0.63h0c-1.78,0-2.86-1.3-2.97-1.44c-4.82-6.2-13.17-7.26-17.72-7.34
					l-0.37,0c-5.61,0-13.12,2.36-16.39,5.14c-1.07,0.91-1.83,1.74-2.43,2.4C95.5,47.59,94.62,48.55,93,48.55L93,48.55z"/>
				<path class="st1" d="M114.68,30.54c8.76,0,14.98,3.52,18.44,5.96c3.66,2.58,7.21,8.27,4.97,9.63c-0.58,0.36-1.11,0.49-1.59,0.49
					c-1.34,0-2.19-1.07-2.19-1.07c-5.16-6.63-14-7.64-18.49-7.72c-0.13,0-0.26,0-0.39,0c-5.53,0-13.4,2.28-17.04,5.38
					c-3.01,2.57-3.53,4.34-5.41,4.34c-0.18,0-0.38-0.02-0.6-0.05c-2.41-0.39-1.04-4.09-1.04-4.09
					C96.69,35.81,105.92,30.54,114.68,30.54 M114.68,28.54c-9.32,0-19.12,5.38-24.96,13.72l-0.15,0.21l-0.09,0.24
					c-0.19,0.51-1.07,3.14,0.05,5.06c0.54,0.92,1.44,1.52,2.55,1.7c0.32,0.05,0.63,0.08,0.92,0.08c2.06,0,3.18-1.22,4.36-2.51
					c0.62-0.67,1.32-1.44,2.35-2.31c3.06-2.61,10.42-4.91,15.74-4.91c0.12,0,0.23,0,0.35,0c4.38,0.08,12.39,1.08,16.95,6.95
					c0.16,0.2,1.53,1.84,3.77,1.84c0.9,0,1.79-0.26,2.63-0.78c1.02-0.62,1.6-1.67,1.65-2.96c0.11-3.16-3.28-7.73-6.51-10.01
					C128.31,30.67,121.72,28.54,114.68,28.54L114.68,28.54z"/>
			</g>
			<g>
				<path class="st1" d="M101.21,114.28c-0.57,0-1.14-0.02-1.72-0.05c-11.83-0.72-18.59-6.9-20.96-9.52c-1.7-1.9-3.4-5.2-3.21-7.58
					c0.1-1.15,0.62-1.79,1.04-2.13c0.34-0.27,0.78-0.41,1.29-0.41c1.46,0,3.72,1.12,6.91,3.43c5.88,4.24,12.79,4.93,15.49,5.03
					c0.31,0.01,0.7,0.02,1.17,0.02c5.58,0,13.71-1.55,20.71-8.96c0.4-0.42,3.99-4.1,7-4.1c1.21,0,2.18,0.57,2.83,1.63
					c0.25,0.42,2.28,4.27-3.93,10.27C123.04,106.53,113.2,114.28,101.21,114.28L101.21,114.28z"/>
				<path class="st1" d="M128.94,91.01c0.78,0,1.47,0.32,1.98,1.15c0.63,1.04,1.09,4.34-3.77,9.03
					c-5.83,5.62-15.08,12.09-25.93,12.09c-0.55,0-1.1-0.02-1.66-0.05c-11.55-0.71-18.15-6.84-20.27-9.19
					c-2.12-2.37-4.02-6.87-2.29-8.26c0.14-0.12,0.36-0.19,0.67-0.19c0.97,0,2.86,0.74,6.33,3.24c5.53,3.99,12,5.07,16.04,5.21
					c0.32,0.01,0.72,0.02,1.2,0.02c4.05,0,13.42-0.79,21.43-9.27C122.66,94.79,126.27,91.01,128.94,91.01 M128.94,89.01
					c-3.35,0-7.02,3.67-7.72,4.41c-6.76,7.15-14.6,8.65-19.98,8.65c-0.45,0-0.83-0.01-1.14-0.02c-2.6-0.09-9.28-0.75-14.94-4.84
					c-4.49-3.24-6.43-3.62-7.5-3.62c-0.94,0-1.56,0.34-1.92,0.63c-0.58,0.46-1.29,1.32-1.41,2.83c-0.22,2.69,1.57,6.23,3.46,8.33
					c2.45,2.72,9.45,9.11,21.64,9.86c0.59,0.04,1.19,0.05,1.78,0.05c12.35,0,22.42-7.93,27.32-12.65c5.15-4.97,5.42-9.3,4.1-11.5
					C131.8,89.76,130.49,89.01,128.94,89.01L128.94,89.01C128.94,89.01,128.94,89.01,128.94,89.01L128.94,89.01z"/>
			</g>
		</g>
	</g>
</g>
<g id="Shockwave_copy">
	<g id="r_4_">
		<path class="st2" d="M392.03,78.61c0,1.13-0.4,2.1-1.2,2.91c-0.8,0.8-1.77,1.2-2.9,1.2c-1.13,0-2.1-0.4-2.9-1.2
			c-0.8-0.8-1.21-1.77-1.21-2.91c0-1.14,0.4-2.1,1.21-2.9c0.8-0.8,1.77-1.2,2.9-1.2c1.13,0,2.1,0.4,2.9,1.2
			C391.63,76.51,392.03,77.48,392.03,78.61z M391.47,78.61c0-0.98-0.35-1.82-1.04-2.53c-0.69-0.71-1.53-1.06-2.51-1.06
			c-0.98,0-1.82,0.35-2.51,1.06c-0.69,0.7-1.04,1.54-1.04,2.53c0,0.98,0.35,1.82,1.04,2.53c0.69,0.71,1.53,1.06,2.51,1.06
			c0.98,0,1.82-0.35,2.51-1.06C391.12,80.44,391.47,79.6,391.47,78.61z M390.57,80.7h-1.07l-1.56-1.68h-0.77v1.68h-0.79v-4.34h1.49
			c0.3,0,0.54,0.02,0.73,0.04c0.19,0.02,0.38,0.09,0.57,0.18c0.2,0.11,0.35,0.24,0.44,0.39c0.1,0.15,0.14,0.35,0.14,0.57
			c0,0.31-0.09,0.56-0.26,0.77c-0.18,0.21-0.43,0.37-0.74,0.49L390.57,80.7z M388.89,77.6c0-0.11-0.02-0.21-0.06-0.3
			c-0.05-0.09-0.12-0.17-0.22-0.22c-0.1-0.06-0.2-0.09-0.31-0.11c-0.11-0.02-0.25-0.03-0.42-0.03h-0.71v1.47h0.61
			c0.19,0,0.37-0.02,0.51-0.05c0.14-0.03,0.25-0.08,0.35-0.15c0.1-0.08,0.17-0.17,0.21-0.26C388.87,77.86,388.89,77.74,388.89,77.6z
			"/>
	</g>
	<g id="text_1_">
		<g>
			<g>
				<path class="st2" d="M359.72,82.92c-11.84,0-16.2-7.49-17.74-11.95l-0.06-0.18c-0.12-0.38-2.54-8.74,1.56-15.91
					c2.44-4.27,6.67-7.18,12.58-8.65c2.17-0.54,4.27-0.81,6.23-0.81c5.63,0,10.28,2.17,13.8,6.44c3.38,4.09,4.56,8.9,4.45,9.45
					c-0.01,0.08,0.03,0.34,0.07,0.54c0.17,0.95,0.52,2.92-1.95,3.83c-2.51,0.93-19.31,2.63-22.72,2.96c0.37,1.28,1.6,4.4,4.81,4.61
					c0.57,0.04,1.08,0.05,1.53,0.05c2.66,0,3.13-0.57,3.68-1.22c0.2-0.24,0.29-0.41,0.39-0.58c0.56-0.96,1.19-1.72,3.7-1.95
					c3.09-0.28,7.89-0.85,7.94-0.85l0.21,0.02c0.05,0.01,1.12,0.36,1.56,1.4c0.31,0.74,0.23,1.6-0.26,2.57
					c-1.25,2.5-5.06,10.08-19.49,10.23L359.72,82.92z M361.02,54.68c-0.35,0-0.71,0.03-1.09,0.08c-2.08,0.3-3.54,1.07-4.33,2.29
					c-0.83,1.28-0.73,2.77-0.61,3.48l11.24-1.44C365.92,57.84,364.77,54.68,361.02,54.68L361.02,54.68z"/>
				<path class="st1" d="M362.28,45.93c14.34,0,17.88,14.68,17.76,15.3c-0.14,0.71,1.15,2.99-1.56,3.99
					c-2.71,1-23.17,2.99-23.17,2.99s1,5.26,5.4,5.55c0.58,0.04,1.1,0.05,1.56,0.05c3,0,3.51-0.74,4.13-1.48
					c0.71-0.86,0.58-1.99,3.69-2.27c3.13-0.29,7.95-0.86,7.95-0.86s2.29,0.71,1.01,3.27c-1.29,2.56-4.98,9.81-19.05,9.95
					c-0.1,0-0.19,0-0.29,0c-13.83,0-16.92-10.67-17.34-11.8c0,0-5.68-19.05,13.79-23.89C358.39,46.17,360.43,45.93,362.28,45.93
					 M354.6,61.09l12.23-1.56c0,0-0.73-5.35-5.81-5.35c-0.36,0-0.75,0.03-1.16,0.09C352.89,55.26,354.6,61.09,354.6,61.09
					 M362.28,44.93c-2,0-4.14,0.28-6.35,0.83c-6.05,1.5-10.38,4.49-12.89,8.88c-4.2,7.35-1.72,15.91-1.61,16.27l0.02,0.06l0.06,0.17
					c2.7,7.81,9.34,12.29,18.22,12.29l0.3,0c14.74-0.15,18.65-7.94,19.93-10.5c0.55-1.11,0.64-2.12,0.27-3
					c-0.52-1.23-1.74-1.63-1.88-1.68l-0.41-0.04c-0.05,0.01-4.84,0.57-7.92,0.85c-2.75,0.25-3.48,1.14-4.09,2.19
					c-0.1,0.17-0.19,0.32-0.28,0.44l-0.06,0.08c-0.49,0.58-0.87,1.04-3.3,1.04c-0.45,0-0.95-0.02-1.5-0.05
					c-2.49-0.16-3.67-2.32-4.17-3.67c4.69-0.47,19.77-2.03,22.22-2.93c2.86-1.06,2.44-3.39,2.26-4.38c-0.03-0.14-0.06-0.33-0.06-0.4
					c0.11-1.01-1.25-5.8-4.57-9.82C372.89,47.22,367.99,44.93,362.28,44.93L362.28,44.93z M355.43,59.97
					c-0.05-0.71,0.01-1.75,0.6-2.66c0.71-1.09,2.04-1.78,3.97-2.06c0.35-0.05,0.69-0.08,1.01-0.08c2.96,0,4.14,2.17,4.58,3.5
					L355.43,59.97L355.43,59.97z"/>
			</g>
			<g>
				<path class="st2" d="M323.93,79.63c-3.4,0-8.98-0.95-9.21-0.99c-0.08-0.01-2.44-0.36-3.23-3.2c-0.71-2.54-6.85-28.08-7.11-29.16
					c-0.01-0.04-0.39-1.43,0.36-2.42c0.46-0.61,1.22-0.92,2.25-0.92c0.15,0,0.32,0.01,0.49,0.02l7.66,0.57l0.2,0.06
					c0.3,0.16,2.97,1.61,2.97,3.57c0,1.21,2.15,11.5,3.33,17l6.36-16.9c0.04-0.11,0.97-2.32,3.9-2.32c0.09,0,0.19,0,0.28,0.01
					c2.84,0.14,6.97,0.72,7.01,0.72c0.07,0.01,1.45,0.25,2.09,1.29c0.36,0.58,0.41,1.27,0.16,2.05
					c-0.7,2.28-11.77,27.02-12.24,28.07c-0.01,0.04-0.68,1.79-3.47,2.42C325.28,79.59,324.69,79.63,323.93,79.63
					C323.93,79.63,323.93,79.63,323.93,79.63z"/>
				<path class="st1" d="M306.97,43.44c0.14,0,0.29,0.01,0.45,0.02l7.67,0.57c0,0,2.7,1.42,2.7,3.12c0,1.7,3.7,18.77,3.7,18.77
					l6.96-18.49c0,0,0.81-2,3.43-2c0.08,0,0.17,0,0.26,0.01c2.85,0.14,6.96,0.72,6.96,0.72s2.57,0.42,1.85,2.69
					c-0.7,2.28-12.22,28.02-12.22,28.02s-0.57,1.56-3.12,2.13c-0.43,0.09-1.01,0.13-1.69,0.13c-3.39,0-9.13-0.99-9.13-0.99
					s-2.13-0.29-2.83-2.84c-0.71-2.56-7.11-29.14-7.11-29.14S304.08,43.44,306.97,43.44 M306.97,42.44L306.97,42.44
					c-1.49,0-2.26,0.61-2.64,1.12c-0.88,1.17-0.48,2.71-0.43,2.88c0.25,1.05,6.4,26.59,7.11,29.14c0.87,3.16,3.55,3.55,3.66,3.56
					c0.2,0.04,5.82,1,9.26,1c0.8,0,1.42-0.05,1.9-0.16c2.85-0.64,3.68-2.36,3.83-2.72c0.59-1.32,11.55-25.81,12.25-28.11
					c0.36-1.14,0.08-1.97-0.22-2.45c-0.74-1.21-2.25-1.49-2.42-1.52c-0.19-0.03-4.22-0.58-7.08-0.73c-0.11-0.01-0.21-0.01-0.31-0.01
					c-3.26,0-4.32,2.52-4.36,2.62l-5.77,15.32c-1.35-6.38-2.96-14.25-2.96-15.23c0-2.25-2.91-3.84-3.24-4.01l-0.39-0.11l-7.67-0.57
					C307.32,42.45,307.14,42.44,306.97,42.44L306.97,42.44z"/>
			</g>
			<g>
				<path class="st2" d="M297.68,78.62c-2.68,0-6.47-0.27-6.5-0.27l-0.12-0.03c-0.11-0.04-2.8-0.97-2.96-3.41
					c-0.01-0.11-0.02-0.2-0.04-0.28c-1.08,1.2-4.16,3.79-10.62,3.79l-0.47,0c-6.73-0.12-10.02-2.31-11.59-4.11
					c-1.77-2.04-2.46-4.77-2.05-8.12c1.15-9.31,10.69-9.97,17.66-10.45c3.91-0.27,7.29-0.5,7.44-2.15c0.07-0.79-0.12-1.44-0.56-1.93
					c-0.65-0.71-1.89-1.12-3.4-1.12c-1.66,0-3.42,0.51-4.19,1.2c-1.72,1.56-4.18,1.74-5.89,1.74c-0.38,0-0.72-0.01-1.02-0.02
					l-0.31-0.01c-1.58-0.05-3.82-0.31-3.91-0.32l-0.12-0.03c-0.07-0.03-1.69-0.68-2.25-2.11c-0.3-0.76-0.25-1.58,0.16-2.44
					c1.29-2.71,5.15-6.14,11.79-6.87c1.01-0.11,2.14-0.17,3.34-0.17c5.77,0,12.97,1.33,15.11,2.78c0.23,0.16,0.47,0.31,0.7,0.46
					c2.45,1.59,4.97,3.22,4.74,10.02c-0.25,7.08-1.35,20.65-1.36,20.79c0.01,1.01-0.63,3.02-3.16,3.06L297.68,78.62z M287.23,63.03
					c-3.45,0.78-8.08,2.09-8.69,2.87c-0.96,1.23-0.52,2.79,0,3.54c0.44,0.63,1.37,1,2.56,1c0.72,0,1.48-0.13,2.18-0.38
					C285.11,69.4,286.84,68.09,287.23,63.03L287.23,63.03z"/>
				<path class="st1" d="M282.04,42.01c5.94,0,12.88,1.36,14.83,2.69c2.69,1.81,5.47,2.91,5.22,10.05
					c-0.25,7.15-1.36,20.76-1.36,20.76s0.03,2.56-2.67,2.6c-0.13,0-0.26,0-0.39,0c-2.7,0-6.47-0.27-6.47-0.27s-2.48-0.83-2.62-2.96
					c-0.05-0.86-0.5-1.1-0.5-1.1s-2.61,4.15-10.67,4.15c-0.15,0-0.31,0-0.46,0c-2.85-0.05-14.53-0.47-13.15-11.68
					c1.77-14.38,24.6-7.18,25.1-12.62c0.24-2.63-2.06-3.59-4.46-3.59c-1.8,0-3.66,0.54-4.53,1.33c-1.55,1.41-3.86,1.61-5.55,1.61
					c-0.51,0-0.96-0.02-1.32-0.03c-1.57-0.04-3.86-0.32-3.86-0.32s-3.08-1.22-1.83-3.87c1.25-2.64,5.03-5.88,11.39-6.58
					C279.79,42.06,280.9,42.01,282.04,42.01 M281.11,70.94c0.78,0,1.6-0.14,2.35-0.41c1.95-0.7,4-2.11,4.31-8.13
					c0,0-8.57,1.85-9.62,3.19c-1.05,1.36-0.71,3.14-0.02,4.13C278.72,70.57,279.86,70.94,281.11,70.94 M282.04,41.01
					c-1.22,0-2.36,0.06-3.39,0.17c-6.85,0.75-10.84,4.32-12.19,7.15c-0.46,0.97-0.52,1.96-0.17,2.84c0.63,1.6,2.34,2.32,2.53,2.39
					l0.25,0.06c0.09,0.01,2.35,0.28,3.95,0.33l0.31,0.01c0.31,0.01,0.66,0.02,1.04,0.02c1.79,0,4.38-0.19,6.23-1.87
					c0.57-0.52,2.12-1.07,3.85-1.07c1.37,0,2.48,0.35,3.03,0.95c0.35,0.39,0.49,0.89,0.43,1.55c-0.11,1.23-3.6,1.47-6.97,1.7
					c-7.14,0.49-16.93,1.17-18.12,10.89c-0.43,3.5,0.3,6.36,2.17,8.51c1.64,1.88,5.04,4.16,11.96,4.29c0.16,0,0.32,0,0.48,0
					c5.57,0,8.73-1.9,10.28-3.26c0.59,2.23,3.07,3.09,3.18,3.13l0.25,0.05c0.16,0.01,3.84,0.27,6.54,0.27l0.4,0
					c2.69-0.04,3.65-2.13,3.66-3.56c0.07-0.84,1.12-13.87,1.36-20.77c0.24-7.08-2.4-8.8-4.97-10.46c-0.23-0.15-0.46-0.3-0.7-0.46
					C295.19,42.35,288,41.01,282.04,41.01L282.04,41.01z M281.11,69.94c-1.01,0-1.81-0.29-2.15-0.78c-0.42-0.61-0.8-1.94-0.02-2.95
					c0.53-0.58,4.19-1.7,7.73-2.53c-0.48,4.43-2.07,5.38-3.55,5.91C282.49,69.81,281.77,69.94,281.11,69.94L281.11,69.94z"/>
			</g>
			<g>
				<path class="st2" d="M225.42,79.81c-0.15,0-3.75-0.05-6.1-4.73c-1.26-2.53-9.92-22.71-10.29-23.56
					c-0.02-0.05-0.57-1.35,0.09-2.81c0.57-1.27,1.84-2.23,3.79-2.86c0.91-0.3,1.02-0.34,1.2-0.34l0.19,0.02
					c0.04,0.01,0.08,0.02,0.22,0.02c0.31,0,0.84-0.05,1.58-0.16l0.12-0.01c0.48,0,2.93,0.24,4.27,4.95
					c0.7,2.48,4.23,10.48,5.77,13.91l1.88-13.57c0.06-2.25,1.2-6.71,5.03-7.13c2.79-0.31,4.8-0.43,4.86-0.43c0,0,0.1-0.01,0.27-0.01
					c0.85,0,3.65,0.22,4.09,3.08l5.83,15.24l2.57-17.04c-0.01-0.03,0.04-2.51,4.14-2.98c3.61-0.41,5.89-0.56,5.99-0.56
					c0,0,0.1-0.01,0.26-0.01c0.52,0,1.48,0.11,2.12,0.82c0.47,0.52,0.66,1.25,0.56,2.15c-0.28,2.7-4.99,24.57-5.18,25.5
					c-0.06,0.24-1.43,5.54-5.93,7.5l-0.15,0.04l-5.39,0.54L247,77.37c-0.16-0.05-3.9-1.22-5.85-6.1c-0.95-2.37-3.23-8.63-4.41-11.85
					l-1.41,11.91c0,0.02-0.26,6.57-6.03,7.96l-3.8,0.51L225.42,79.81z"/>
				<path class="st1" d="M261.16,41.33c0.64,0,2.43,0.2,2.19,2.42c-0.28,2.7-5.18,25.44-5.18,25.44s-1.31,5.27-5.64,7.15l-5.39,0.54
					c0,0-3.65-1.1-5.54-5.8c-1.31-3.26-5.12-13.82-5.12-13.82l-1.66,14.01c0,0-0.18,6.21-5.65,7.53l-3.75,0.5c0,0,0,0-0.01,0
					c-0.16,0-3.44-0.06-5.65-4.46c-1.27-2.55-10.28-23.54-10.28-23.54s-1.46-3.36,3.57-5c0.77-0.25,0.95-0.31,1.05-0.31
					c0.08,0,0.12,0.04,0.41,0.04c0.26,0,0.74-0.03,1.65-0.16c0,0,0.02,0,0.05,0c0.37,0,2.54,0.19,3.79,4.58
					c0.91,3.25,6.51,15.56,6.51,15.56l2.12-15.29c0,0,0.18-6.21,4.59-6.7c2.84-0.32,4.83-0.43,4.83-0.43s0.09-0.01,0.24-0.01
					c0.78,0,3.25,0.2,3.6,2.71l6.53,17.07l2.85-18.92c0,0,0-2.13,3.7-2.56c3.7-0.42,5.97-0.56,5.97-0.56S261.02,41.33,261.16,41.33
					 M261.16,40.33c-0.2,0-0.33,0.02-0.33,0.02c-0.05,0-2.29,0.14-5.97,0.56c-4.09,0.47-4.53,2.88-4.58,3.44L248,59.48l-5.13-13.42
					c-0.42-2.54-2.63-3.45-4.57-3.45c-0.2,0-0.32,0.01-0.32,0.01c-0.06,0-2.03,0.12-4.86,0.43c-5.02,0.55-5.44,6.87-5.48,7.6
					L226,62.44c-1.71-3.86-4.44-10.12-5.03-12.24c-1.43-5.06-4.21-5.31-4.75-5.31c-0.09,0-0.15,0.01-0.15,0.01
					c-0.94,0.13-1.37,0.16-1.56,0.16c-0.05,0-0.08,0-0.1,0c-0.07-0.01-0.17-0.04-0.31-0.04c-0.26,0-0.4,0.05-1.3,0.34l-0.06,0.02
					c-2.08,0.68-3.45,1.73-4.08,3.13c-0.73,1.63-0.16,3.06-0.09,3.21c0.37,0.85,9.03,21.04,10.3,23.59
					c2.44,4.87,6.13,5.01,6.54,5.01l0.14-0.01l3.75-0.5l0.1-0.02c4.88-1.18,6.33-6,6.41-8.43l1.16-9.78
					c1.22,3.35,2.9,7.91,3.69,9.89c2.04,5.09,6.01,6.34,6.17,6.39l0.39,0.04l5.39-0.54l0.3-0.08c4.72-2.06,6.15-7.59,6.21-7.83
					c0.21-0.96,4.92-22.86,5.2-25.58c0.11-1.05-0.12-1.9-0.69-2.54C262.88,40.46,261.76,40.33,261.16,40.33L261.16,40.33z"/>
			</g>
			<g>
				<path class="st2" d="M202.85,80.54c-2.09,0-4.25-0.24-4.35-0.25c-0.16-0.03-3.32-0.6-5.55-3.98c-0.94-1.43-3.74-6.19-4.69-7.8
					l-1.93,1.71l-0.18,4.91c-0.11,1.77-1.13,5.1-4.25,5.1c-0.12,0-0.25,0-0.39-0.02l-4.12-0.03c-0.18-0.02-3.34-0.34-4.8-2.19
					c-0.6-0.76-0.83-1.66-0.69-2.67l0.73-37.86c0.13-1.89,1.33-5.42,4.99-5.42l0.17,0c2.12,0.06,2.92,0.28,3.26,0.46
					c2.1,0.11,5.8,1.34,5.72,5.28c-0.04,1.86-0.18,12.92-0.23,16.86l5.56-6.56c0.09-0.11,2.34-2.85,5.49-2.85l0.11,0
					c2.99,0.06,5.69,0.3,5.71,0.3l0.13,0.03c0.09,0.03,2.25,0.85,2.81,2.62c0.3,0.97,0.07,2.01-0.69,3.09l-7.29,7.83l9.45,15.07
					c0.07,0.15,1.21,2.5,0.31,4.34c-0.47,0.95-1.37,1.58-2.68,1.85C204.82,80.47,203.94,80.54,202.85,80.54L202.85,80.54z"/>
				<path class="st1" d="M177.65,32.52c0.05,0,0.11,0,0.16,0c2.85,0.08,3.1,0.45,3.1,0.45s5.48,0.16,5.39,4.78
					c-0.05,2.29-0.24,18.25-0.24,18.25l6.46-7.62c0,0,2.16-2.67,5.11-2.67c0.03,0,0.07,0,0.1,0c3,0.06,5.68,0.3,5.68,0.3
					s4.27,1.57,1.88,4.95l-7.51,8.05l9.65,15.39c0,0,2.22,4.54-2.06,5.44c-0.68,0.14-1.58,0.19-2.51,0.19
					c-2.09,0-4.29-0.25-4.29-0.25s-3.05-0.52-5.19-3.76c-1.12-1.71-4.98-8.3-4.98-8.3l-2.54,2.26l-0.19,5.12
					c0,0-0.28,4.62-3.75,4.62c-0.11,0-0.23,0-0.34-0.01l-4.15-0.04c0,0-5.53-0.53-5-4.3l0.73-37.92
					C173.15,37.45,173.49,32.52,177.65,32.52 M177.65,31.52L177.65,31.52c-4.03,0-5.35,3.84-5.49,5.86l-0.73,37.91
					c-0.14,1.12,0.13,2.15,0.8,2.99c1.56,1.99,4.75,2.34,5.1,2.38l0.09,0l4.12,0.04c0.13,0.01,0.26,0.01,0.39,0.01
					c3.49,0,4.63-3.64,4.75-5.56l0.18-4.72l1.31-1.17c1.14,1.94,3.53,5.99,4.39,7.3c2.34,3.56,5.71,4.17,5.85,4.2l0.05,0.01
					c0.09,0.01,2.28,0.26,4.4,0.26c1.12,0,2.04-0.07,2.71-0.21c1.84-0.38,2.66-1.36,3.03-2.12c0.99-2.02-0.15-4.46-0.28-4.73
					l-0.05-0.09l-9.24-14.74l6.99-7.49l0.08-0.1c1.07-1.51,1-2.75,0.76-3.52c-0.61-1.98-2.86-2.85-3.11-2.94l-0.25-0.06
					c-0.11-0.01-2.75-0.24-5.75-0.31l-0.12,0c-3.39,0-5.79,2.92-5.89,3.04l-4.65,5.49c0.06-4.68,0.17-13.79,0.21-15.46
					c0.09-4.27-3.79-5.63-6.09-5.79c-0.49-0.22-1.43-0.41-3.37-0.47C177.77,31.52,177.71,31.52,177.65,31.52L177.65,31.52
					L177.65,31.52z"/>
			</g>
			<g>
				<path class="st2" d="M148.62,84.27c-12.45,0-16.31-9.93-17.39-14.2c-1.29-5.06-0.53-10.49,2.05-14.51
					c2.72-4.25,7.23-6.99,13.41-8.12c2.02-0.37,3.93-0.56,5.69-0.56c9.72,0,12.87,5.7,14.21,8.13l0.23,0.41
					c0.42,0.74,0.51,1.49,0.25,2.22c-0.61,1.77-3.03,2.78-3.13,2.82l-0.12,0.03c0,0-1.06,0.14-5.04,0.58
					c-0.16,0.02-0.34,0.03-0.52,0.03c-1.79,0-4.01-0.93-4.96-3.02c-0.32-0.7-1.07-1.06-2.23-1.06c-0.74,0-1.35,0.15-1.36,0.16
					c-3.38,0.95-4.39,3.86-4.43,3.98c-0.06,0.44-0.15,0.96-0.24,1.49c-0.62,3.5-1.21,6.8,2.67,10.64c0.81,0.8,2.05,1.26,3.39,1.26
					c1.4,0,2.72-0.5,3.53-1.34c0.63-0.65,0.93-1.46,0.9-2.4c-0.09-2.69,5.33-3.01,5.95-3.04c0,0,2.6-0.24,3.71-0.38
					c0.07-0.01,0.13-0.01,0.21-0.01c0.81,0,2.01,0.56,2.76,1.62c0.46,0.66,0.91,1.75,0.39,3.2l-0.23,0.68
					c-1.32,3.86-3.13,9.15-15.62,11.06C151.28,84.16,149.92,84.27,148.62,84.27C148.62,84.27,148.62,84.27,148.62,84.27z"/>
				<path class="st1" d="M152.38,47.37c10,0,12.78,6.15,14,8.29c1.5,2.64-2.64,4.33-2.64,4.33s-1.06,0.14-5.03,0.57
					c-0.15,0.02-0.3,0.03-0.46,0.03c-1.54,0-3.63-0.8-4.5-2.72c-0.5-1.1-1.7-1.35-2.69-1.35c-0.82,0-1.48,0.17-1.48,0.17
					c-3.71,1.04-4.78,4.31-4.78,4.31c-0.58,3.97-2.13,8.02,2.55,12.64c0.97,0.95,2.36,1.41,3.74,1.41c2.52,0,5.02-1.5,4.93-4.25
					c-0.08-2.27,5.48-2.53,5.48-2.53s2.62-0.24,3.75-0.38c0.04-0.01,0.09-0.01,0.14-0.01c1.2,0,3.59,1.62,2.68,4.15
					c-1.39,3.94-2.54,9.44-15.46,11.42c-1.41,0.22-2.73,0.32-3.98,0.32c-10.2,0-15.14-6.85-16.91-13.82
					c-1.99-7.81,0.43-19.32,15.06-22.02C148.86,47.54,150.72,47.37,152.38,47.37 M152.38,46.37c-1.79,0-3.73,0.19-5.78,0.57
					c-6.32,1.17-10.94,3.97-13.74,8.35c-2.69,4.2-3.46,9.63-2.11,14.91c2.35,9.26,8.87,14.57,17.88,14.57
					c1.32,0,2.71-0.11,4.14-0.33c12.79-1.96,14.66-7.41,16.02-11.4c0.08-0.23,0.16-0.46,0.23-0.68c0.46-1.28,0.3-2.58-0.45-3.65
					c-0.76-1.08-2.06-1.83-3.17-1.83c-0.09,0-0.18,0.01-0.26,0.02c-1.11,0.14-3.69,0.38-3.72,0.38c-1.05,0.05-6.49,0.45-6.39,3.56
					c0.03,0.8-0.23,1.48-0.76,2.03c-0.72,0.74-1.91,1.19-3.17,1.19c-1.21,0-2.32-0.41-3.04-1.12c-3.7-3.65-3.13-6.83-2.53-10.2
					c0.09-0.5,0.18-0.99,0.25-1.49c0.17-0.44,1.19-2.78,4.08-3.59c0,0,0,0,0,0c0,0,0.56-0.13,1.22-0.13c0.95,0,1.54,0.26,1.78,0.77
					c1.04,2.28,3.47,3.31,5.41,3.31c0.2,0,0.39-0.01,0.58-0.03c3.93-0.43,5-0.57,5.05-0.58l0.25-0.07c0.28-0.11,2.75-1.17,3.42-3.12
					c0.3-0.86,0.2-1.77-0.29-2.63c-0.07-0.12-0.14-0.25-0.22-0.4C165.64,52.25,162.39,46.37,152.38,46.37L152.38,46.37z"/>
			</g>
			<g>
				<path class="st2" d="M52.43,85.99c-0.04,0-4.48-0.36-4.5-4.9l-1.14-37.88c0-0.1,0.41-4.61,5.48-5.2
					c1.26-0.15,2.38-0.22,3.33-0.22c1.17,0,1.68,0.11,1.73,0.13c1.48,0.36,4.24,1.77,4.09,4.59c-0.1,1.85,0.17,8.55,0.3,11.45
					c1.47-1.67,4.84-4.62,10.26-4.62c0.56,0,1.13,0.03,1.71,0.1c8.62,0.96,11.26,8.25,11.2,10.66c-0.06,2.1,0.79,20.1,0.79,20.28
					c-0.05,1.4-0.91,4.14-3.82,4.78l-5.77,0.34c-1.73-0.16-4.81-1.4-4.7-4.94c0.07-2.25-0.26-15.26-0.26-15.39
					c-0.02-0.11-0.66-4.2-3.85-4.2c-0.22,0-0.46,0.02-0.71,0.06c-2.82,0.48-4.38,2.13-4.66,4.93c-0.1,1.09,0.12,9.68,0.25,14.07
					c0,0.05,0.07,4.6-5.06,5.38l-4.58,0.57L52.43,85.99z"/>
				<path class="st1" d="M55.6,38.29c1.15,0,1.61,0.11,1.61,0.11s3.88,0.93,3.71,4.08c-0.14,2.42,0.36,12.86,0.36,12.86
					s3.49-5.49,10.7-5.49c0.53,0,1.08,0.03,1.65,0.09c8.34,0.93,10.81,8.01,10.76,10.15c-0.06,2.14,0.79,20.32,0.79,20.32
					s-0.12,3.54-3.43,4.27l-5.69,0.33c0,0-4.3-0.42-4.17-4.42c0.07-2.29-0.26-15.42-0.26-15.42s-0.68-4.69-4.35-4.69
					c-0.25,0-0.51,0.02-0.79,0.07c-4.35,0.73-4.94,3.96-5.07,5.37c-0.13,1.42,0.25,14.13,0.25,14.13s0.11,4.15-4.64,4.87l-4.56,0.57
					c0,0-4.02-0.28-4.04-4.4L47.29,43.2c0,0,0.32-4.14,5.04-4.68C53.77,38.35,54.83,38.29,55.6,38.29 M55.6,37.29L55.6,37.29
					c-0.97,0-2.11,0.08-3.39,0.23c-4.38,0.51-5.79,3.88-5.92,5.6l0,0.11l1.14,37.89c0.02,3.97,3.26,5.25,4.97,5.37l0.19-0.01
					l4.56-0.57c4.47-0.67,5.56-4.15,5.51-5.89c-0.15-5.09-0.35-13.02-0.25-14.01c0.25-2.57,1.64-4.04,4.25-4.48
					c0.21-0.04,0.43-0.05,0.62-0.05c2.59,0,3.27,3.33,3.35,3.78c0.03,1.03,0.33,13.15,0.26,15.29c-0.12,3.9,3.26,5.27,5.07,5.45
					l0.15,0l5.69-0.33l0.16-0.02c3.21-0.71,4.16-3.72,4.21-5.21l0-0.08c-0.01-0.18-0.85-18.17-0.79-20.25
					c0.06-2.53-2.68-10.17-11.64-11.17c-0.59-0.07-1.19-0.1-1.76-0.1c-4.77,0-8.01,2.2-9.81,3.93c-0.14-3.23-0.34-8.63-0.25-10.24
					c0.17-3.15-2.85-4.72-4.47-5.11C57.35,37.41,56.81,37.29,55.6,37.29L55.6,37.29z"/>
			</g>
			<g>
				<path class="st2" d="M23.87,83.18c-1.24,0-2.54-0.06-3.89-0.17c-8.25-0.75-14.16-4.02-17.56-9.71c-1.72-2.89-2.29-5.15-1.69-6.7
					c0.37-0.96,1.16-1.63,2.34-2l0.21-0.02l9.97,1.16c3.16,0.5,3.63,1.88,4.02,2.99c0.16,0.46,0.29,0.83,0.6,1.08
					c1.08,0.84,2.41,1.34,3.95,1.51c0.53,0.04,1.03,0.07,1.5,0.07c4.36,0,4.51-1.95,4.55-2.58c0.06-0.7-0.55-2.15-5.39-4.21
					l-7.87-2.84C6.83,58.87,2.89,54.24,2.89,48c0-3.2,0.74-5.97,2.21-8.24c2.36-3.69,6.25-5.99,11.54-6.83
					c1.61-0.26,3.27-0.4,4.93-0.4c1.06,0,2.19,0.05,3.35,0.14c8.25,0.75,13.9,3.77,16.78,8.99c1.15,2.08,2.34,4.97,1.45,6.86
					c-0.39,0.83-1.12,1.36-2.17,1.56l-0.15,0.01l-8.09-0.94l-1.59-0.14c-2.7-0.4-2.93-1.78-3.11-2.89
					c-0.21-1.28-0.41-2.49-4.53-2.86c-0.21-0.02-0.41-0.03-0.6-0.03c-2.58,0-4.12,1.55-4.26,3.01c-0.06,0.66,0.57,2.1,5.46,4.22
					l7.87,2.84c7.74,2.88,11.68,7.39,11.72,13.4c0.05,4.24-1.19,7.8-3.69,10.57C36.51,81.2,31.08,83.18,23.87,83.18L23.87,83.18z"/>
				<path class="st1" d="M21.57,33.03c1.08,0,2.18,0.05,3.3,0.14c8.07,0.73,13.56,3.62,16.38,8.73c2.04,3.7,2.6,7.11-0.38,7.69
					l-8.09-0.94l-1.6-0.14c-5.2-0.77,0.46-5.03-7.64-5.74c-0.22-0.02-0.43-0.03-0.64-0.03c-2.86,0-4.59,1.77-4.75,3.46
					c-0.13,1.42,1.79,3,5.76,4.72c2.63,0.95,5.26,1.9,7.9,2.85c7.55,2.81,11.35,7.12,11.39,12.94c0.05,4.15-1.14,7.55-3.56,10.23
					c-3.42,3.83-8.68,5.74-15.77,5.74c-1.23,0-2.51-0.06-3.84-0.17c-8.13-0.74-13.84-3.89-17.17-9.47
					c-1.51-2.54-3.44-6.78,0.37-7.97l9.97,1.16c4.21,0.67,3.07,2.92,4.36,3.96c1.16,0.9,2.57,1.44,4.21,1.61
					c0.55,0.05,1.07,0.07,1.55,0.07c3.21,0,4.9-1.02,5.05-3.05c0.13-1.47-1.77-3.04-5.7-4.71c-2.63-0.95-5.27-1.9-7.9-2.85
					C7.18,58.47,3.39,54.04,3.39,48c0-3.11,0.7-5.76,2.13-7.97c2.29-3.58,6.02-5.78,11.2-6.61C18.27,33.17,19.9,33.03,21.57,33.03
					 M21.57,32.03c-1.69,0-3.38,0.14-5.02,0.4c-5.44,0.86-9.44,3.24-11.88,7.05C3.16,41.83,2.39,44.7,2.39,48
					c0,6.48,4.05,11.26,12.04,14.21l4.04,1.46l3.84,1.39c4.95,2.11,5.09,3.44,5.07,3.69c-0.04,0.6-0.16,2.14-4.06,2.14
					c-0.45,0-0.95-0.02-1.47-0.07c-1.42-0.15-2.67-0.62-3.68-1.41c-0.17-0.14-0.27-0.4-0.42-0.84c-0.38-1.1-0.96-2.77-4.39-3.31
					L3.34,64.09l-0.41,0.04c-1.34,0.42-2.24,1.19-2.66,2.3c-0.66,1.73-0.1,4.06,1.73,7.13c3.49,5.84,9.52,9.19,17.94,9.95
					c1.36,0.12,2.68,0.18,3.93,0.18c7.36,0,12.91-2.04,16.51-6.07c2.58-2.86,3.87-6.53,3.82-10.91
					c-0.04-6.24-4.09-10.91-12.04-13.86l-4.24-1.53l-3.64-1.31c-5.01-2.18-5.15-3.47-5.13-3.71c0.12-1.23,1.47-2.55,3.76-2.55
					c0.18,0,0.36,0.01,0.55,0.02c3.74,0.33,3.89,1.26,4.08,2.44c0.19,1.13,0.47,2.85,3.5,3.3l0.06,0.01l1.6,0.14l8.06,0.94
					l0.31-0.01c1.52-0.29,2.21-1.16,2.53-1.84c0.97-2.08-0.26-5.12-1.47-7.31c-2.97-5.37-8.75-8.48-17.17-9.25
					C23.79,32.08,22.65,32.03,21.57,32.03L21.57,32.03z"/>
			</g>
			<g>
				<path class="st2" d="M107.48,84.53c-5.64,0-10.09-1.9-13.23-5.65c-1.91-2.25-3.13-5.17-3.62-8.69
					c-0.16-1.12-0.24-2.23-0.24-3.28c0-5.78,2.24-10.22,6.64-13.19c2.51-1.75,5.58-2.87,9.13-3.35c1.17-0.16,2.38-0.24,3.58-0.24
					c4.05,0,7.53,1.01,10.33,3c3.63,2.52,5.82,6.34,6.51,11.34c0.81,5.59-0.31,10.19-3.33,13.65
					C119.65,82.37,114.34,84.53,107.48,84.53L107.48,84.53z M108.27,59.56c-0.2,0-0.4,0.01-0.6,0.04c-1.73,0.25-2.88,1.19-3.53,2.89
					c-0.52,1.41-0.65,3.15-0.39,5.17c0.7,4.95,2.4,7.35,5.19,7.35c0.23,0,0.48-0.02,0.72-0.05c2.63-0.4,3.91-2.34,3.91-5.93
					c0-0.81-0.08-1.73-0.24-2.72c-0.27-1.94-0.84-3.55-1.69-4.79C110.72,60.2,109.62,59.56,108.27,59.56L108.27,59.56z"/>
				<path class="st1" d="M109.73,50.62c3.96,0,7.31,0.97,10.04,2.91c3.53,2.46,5.63,6.12,6.3,11c0.79,5.47-0.28,9.89-3.21,13.26
					c-3.52,4.16-8.66,6.24-15.39,6.24c-5.52,0-9.79-1.82-12.85-5.47c-1.86-2.18-3.03-4.99-3.5-8.44c-0.16-1.11-0.24-2.18-0.24-3.21
					c0-5.63,2.14-9.89,6.42-12.78c2.46-1.71,5.42-2.8,8.91-3.27C107.42,50.69,108.59,50.62,109.73,50.62 M108.94,75.51
					c0.26,0,0.52-0.02,0.79-0.05c2.89-0.44,4.34-2.58,4.34-6.42c0-0.83-0.08-1.77-0.24-2.79c-0.28-2.03-0.87-3.69-1.78-5
					c-1.01-1.45-2.27-2.18-3.79-2.18c-0.22,0-0.44,0.01-0.67,0.05c-1.91,0.27-3.22,1.34-3.93,3.21c-0.56,1.51-0.69,3.31-0.41,5.41
					C103.99,72.92,105.88,75.51,108.94,75.51 M109.73,49.62c-1.22,0-2.45,0.08-3.65,0.25c-3.62,0.49-6.76,1.64-9.35,3.44
					c-4.54,3.06-6.85,7.64-6.85,13.6c0,1.07,0.08,2.2,0.25,3.36c0.5,3.61,1.75,6.62,3.73,8.95c3.23,3.86,7.81,5.82,13.61,5.82
					c7.02,0,12.45-2.22,16.16-6.6c3.11-3.57,4.26-8.3,3.44-14.05c-0.71-5.14-2.97-9.07-6.72-11.68
					C117.47,50.66,113.9,49.62,109.73,49.62L109.73,49.62z M108.94,74.51c-0.92,0-3.72,0-4.7-6.93c-0.26-1.92-0.13-3.58,0.36-4.92
					c0.58-1.52,1.58-2.34,3.13-2.57c0.17-0.02,0.35-0.03,0.53-0.03c1.18,0,2.15,0.57,2.97,1.75c0.81,1.17,1.35,2.71,1.61,4.56
					c0.16,0.98,0.23,1.87,0.23,2.66c0,4.4-1.99,5.21-3.49,5.44C109.38,74.5,109.15,74.51,108.94,74.51L108.94,74.51z"/>
			</g>
			<g>
				<path class="st2" d="M97.72,131.22c-1.53,0-3.1-0.06-4.66-0.17c-0.23-0.01-24.99-0.88-39.17-21.98
					c-0.14-0.29-2.57-5.53-0.18-8.05c0.27-0.29,0.67-0.43,1.18-0.43c1.23,0,3.11,0.88,4.58,2.15c0.37,0.32,0.85,0.97,1.52,1.86
					c3.61,4.86,12.06,16.25,31.58,16.25c0,0,0,0,0,0c0.63,0,1.28-0.01,1.94-0.04c22.4-0.85,32.52-11.19,43.22-22.14
					c1.09-1.11,2.18-2.23,3.29-3.34c0.79-0.79,2.35-1.59,4.05-1.59c1.42,0,2.74,0.56,3.82,1.63c1.02,1.02,1.25,3.88-0.17,6.72
					C148.59,102.37,133.16,131.22,97.72,131.22C97.72,131.22,97.72,131.22,97.72,131.22z"/>
				<path class="st1" d="M145.08,94.23c1.14,0,2.37,0.39,3.47,1.48c0.76,0.76,1.15,3.3-0.26,6.14
					c-1.81,3.61-17.74,28.86-50.57,28.86c-1.5,0-3.05-0.05-4.62-0.16c0,0-24.59-0.63-38.79-21.76c0,0-2.41-5.13-0.23-7.43
					c0.18-0.19,0.47-0.28,0.82-0.28c1.12,0,2.91,0.87,4.26,2.03c2.15,1.84,10.04,18.24,33.43,18.24c0.64,0,1.3-0.01,1.96-0.04
					c24.91-0.94,34.88-13.65,46.85-25.63C142.07,94.99,143.49,94.23,145.08,94.23 M145.08,93.23c-1.97,0-3.6,0.94-4.4,1.74
					c-1.11,1.11-2.2,2.23-3.29,3.35c-10.63,10.88-20.68,21.16-42.88,22c-0.64,0.02-1.29,0.04-1.92,0.04
					c-19.27,0-27.62-11.25-31.18-16.05c-0.71-0.96-1.18-1.59-1.59-1.94c-1.55-1.34-3.57-2.27-4.91-2.27c-0.82,0-1.29,0.32-1.55,0.59
					c-2.57,2.71-0.22,7.95,0.06,8.54l0.07,0.13c14.32,21.32,39.34,22.2,39.59,22.2c1.53,0.11,3.11,0.16,4.65,0.16
					c35.75,0,51.32-29.12,51.46-29.41c1.54-3.08,1.25-6.13,0.08-7.3C148.08,93.84,146.64,93.23,145.08,93.23L145.08,93.23z"/>
			</g>
			<g>
				<path class="st2" d="M75.87,35.05c-1.15,0-2.1-0.51-2.82-1.51c-0.16-0.19-1.62-2.25,1.88-7.81c3.25-5.17,21.2-24.59,49.64-25.21
					c0.45-0.01,0.89-0.01,1.32-0.01c29.23,0,35.42,21.36,36.03,23.79c0.89,3.58-0.27,6.49-3.37,8.43c-0.72,0.45-1.47,0.67-2.24,0.67
					c-2.14,0-4.4-1.7-6.91-5.21c-0.23-0.32-0.48-0.68-0.75-1.07c-3.58-5.18-11.02-15.95-27.16-16.24l-0.51,0
					c-18.92,0-36.89,18.74-37.07,18.93C83.75,30,79.43,35.05,75.87,35.05C75.88,35.05,75.87,35.05,75.87,35.05z"/>
				<path class="st1" d="M125.9,1c27.9,0,34.61,19.69,35.54,23.41c0.94,3.78-0.63,6.3-3.15,7.89c-0.64,0.4-1.3,0.6-1.98,0.6
					c-1.99,0-4.15-1.71-6.5-5c-3.15-4.42-10.65-17.21-28.31-17.52c-0.17,0-0.34,0-0.52,0c-19.36,0-37.44,19.09-37.44,19.09
					s-4.3,5.09-7.67,5.09c-0.91,0-1.75-0.37-2.41-1.3c0,0-1.51-1.84,1.9-7.25c2.62-4.17,20.21-24.34,49.23-24.98
					C125.03,1,125.46,1,125.9,1 M125.9,0c-0.44,0-0.88,0-1.34,0.01C95.9,0.64,77.79,20.24,74.51,25.46
					c-3.52,5.59-2.22,7.9-1.85,8.38c0.8,1.11,1.92,1.7,3.21,1.7c3.68,0,7.85-4.76,8.42-5.42c0.65-0.68,18.26-18.76,36.69-18.76
					c0.17,0,0.33,0,0.5,0c15.89,0.28,23.23,10.91,26.76,16.02c0.27,0.4,0.53,0.76,0.75,1.08c2.61,3.65,5,5.42,7.32,5.42
					c0.87,0,1.71-0.25,2.5-0.75c3.3-2.07,4.54-5.17,3.6-8.98C161.79,21.7,155.51,0,125.9,0L125.9,0z"/>
			</g>
			<g>
				<path class="st2" d="M91.4,44.45c-0.21,0-0.43-0.02-0.68-0.06c-0.66-0.11-1.18-0.45-1.49-0.98c-0.79-1.36-0.03-3.54,0.06-3.78
					l0.06-0.11c5.49-7.82,15.02-13.08,23.73-13.08c6.72,0,13.02,2.04,18.73,6.05c2.85,2.01,5.96,6.17,5.88,8.73
					c-0.03,0.78-0.35,1.38-0.93,1.74c-0.61,0.37-1.23,0.56-1.85,0.56h0c-1.57,0-2.54-1.2-2.58-1.26c-4.94-6.36-13.47-7.45-18.1-7.53
					l-0.38,0c-5.71,0-13.37,2.41-16.71,5.26c-1.1,0.93-1.86,1.77-2.48,2.44C93.58,43.6,92.8,44.45,91.4,44.45L91.4,44.45z"/>
				<path class="st1" d="M113.08,26.94c8.76,0,14.98,3.52,18.44,5.96c3.66,2.58,7.21,8.27,4.97,9.63c-0.58,0.36-1.11,0.49-1.59,0.49
					c-1.34,0-2.19-1.07-2.19-1.07c-5.16-6.63-14-7.64-18.49-7.72c-0.13,0-0.26,0-0.39,0c-5.53,0-13.4,2.28-17.04,5.38
					c-3.01,2.57-3.53,4.34-5.41,4.34c-0.18,0-0.38-0.02-0.6-0.05c-2.41-0.39-1.04-4.09-1.04-4.09
					C95.09,32.2,104.32,26.94,113.08,26.94 M113.08,25.94c-8.87,0-18.57,5.34-24.14,13.29l-0.12,0.23c-0.1,0.27-0.94,2.65-0.03,4.21
					c0.39,0.67,1.03,1.09,1.84,1.22c0.26,0.04,0.52,0.06,0.76,0.06c1.62,0,2.51-0.96,3.63-2.18c0.61-0.66,1.36-1.48,2.43-2.4
					c3.27-2.79,10.78-5.14,16.39-5.15c0.12,0,0.25,0,0.37,0c4.55,0.08,12.9,1.14,17.72,7.33c0.12,0.16,1.21,1.45,2.98,1.45
					c0.71,0,1.42-0.21,2.11-0.63c0.72-0.44,1.14-1.2,1.17-2.15c0.09-2.8-3.13-7.07-6.09-9.16C126.3,28,119.91,25.94,113.08,25.94
					L113.08,25.94z"/>
			</g>
			<g>
				<path class="st2" d="M99.61,110.19c-0.56,0-1.12-0.02-1.69-0.05c-11.64-0.71-18.29-6.78-20.61-9.36
					c-1.65-1.85-3.26-5.05-3.08-7.21c0.06-0.78,0.35-1.38,0.85-1.78c0.25-0.2,0.58-0.3,0.98-0.3c1.33,0,3.56,1.12,6.62,3.33
					c5.99,4.32,13.02,5.02,15.77,5.12c0.31,0.01,0.71,0.02,1.18,0.02c5.68,0,13.95-1.58,21.07-9.11c0.15-0.16,3.79-3.94,6.64-3.94
					c1.02,0,1.85,0.48,2.4,1.39c0.23,0.38,2.09,3.92-3.85,9.65C121.15,102.53,111.43,110.19,99.61,110.19L99.61,110.19z"/>
				<path class="st1" d="M127.34,87.41c0.78,0,1.47,0.32,1.98,1.15c0.63,1.04,1.09,4.34-3.77,9.03
					c-5.83,5.62-15.08,12.09-25.93,12.09c-0.55,0-1.1-0.02-1.66-0.05c-11.55-0.71-18.15-6.84-20.27-9.19
					c-2.12-2.37-4.02-6.87-2.29-8.26c0.14-0.12,0.36-0.19,0.67-0.19c0.97,0,2.86,0.74,6.33,3.24c5.53,3.99,12,5.07,16.04,5.21
					c0.32,0.01,0.72,0.02,1.2,0.02c4.05,0,13.42-0.79,21.43-9.27C121.07,91.2,124.67,87.41,127.34,87.41 M127.34,86.41
					c-3.01,0-6.6,3.68-7,4.09c-7,7.4-15.13,8.96-20.71,8.96c-0.47,0-0.86-0.01-1.17-0.02c-2.69-0.1-9.61-0.78-15.49-5.03
					c-3.19-2.31-5.45-3.43-6.91-3.43c-0.52,0-0.96,0.14-1.29,0.41c-0.42,0.34-0.94,0.98-1.04,2.13c-0.2,2.38,1.5,5.68,3.2,7.58
					c2.36,2.62,9.13,8.8,20.96,9.53c0.57,0.04,1.15,0.05,1.72,0.05c11.99,0,21.83-7.75,26.63-12.37c6.22-6,4.19-9.85,3.94-10.27
					C129.52,86.98,128.54,86.41,127.34,86.41L127.34,86.41L127.34,86.41L127.34,86.41z"/>
			</g>
		</g>
	</g>
</g>
</svg>
